<svg height="107" viewBox="0 0 107 107" width="107" xmlns="http://www.w3.org/2000/svg"><g fill="none" fill-rule="evenodd"><path d="m0 0h107v107h-107z" fill="#f8f3ff"/><path d="m23.2 67h5.1v5.2c0 4 3.2 7.2 7.2 7.2h5.1v5.1c0 4 3.2 7.2 7.2 7.2h36.6c4 0 7.2-3.2 7.2-7.2v-36.6c0-4-3.2-7.2-7.2-7.2h-5.2v-5.2c0-4-3.2-7.2-7.2-7.2h-5.2v-5.1c0-4-3.2-7.2-7.2-7.2h-36.4c-4 0-7.2 3.2-7.2 7.2v36.7c0 3.9 3.2 7.1 7.2 7.1zm42.7-26.2h-18.1c-4 0-7.2 3.2-7.2 7.2v18.1h-11.3v-30.5c0-3.4 2.8-6.2 6.2-6.2h30.4zm-24.2 26.2h18.1c4 0 7.2-3.2 7.2-7.2v-18h11.3v30.4c0 3.4-2.8 6.2-6.2 6.2h-30.4z" fill="#5c2fa8" fill-rule="nonzero"/></g></svg>