<svg height="107" viewBox="0 0 107 107" width="107" xmlns="http://www.w3.org/2000/svg"><g fill="none" fill-rule="evenodd"><path d="m0 0h107v107h-107z" fill="#f8f3ff"/><path d="m57.2 14.8c-.8-.8-2-1.3-3.2-1.3s-2.3.5-3.2 1.3l-35.7 35.7c-1.8 1.8-1.8 4.6 0 6.4l35.7 35.7c.8.8 2 1.3 3.2 1.3s2.3-.5 3.2-1.3l35.7-35.7c1.8-1.8 1.8-4.6 0-6.4zm15.5 56.6c-.2-.1-.3-.2-.5-.3l-6.5-6.5 7.7-7.7c1.8-1.8 1.8-4.6 0-6.4l-7.7-7.7 6.5-6.5c.6-.6 1.5-.6 2.1 0l16.3 16.3c.1.1.3.3.3.5.2.5.1 1.2-.3 1.6l-16.2 16.3c-.5.5-1.1.6-1.7.4zm-38.6 0c-.2-.1-.3-.2-.5-.3l-16.3-16.4c-.6-.6-.6-1.5 0-2.1l16.3-16.3c.2-.2.5-.3.8-.4.5-.1 1 0 1.3.4l6.5 6.5-7.7 7.7c-1.8 1.8-1.8 4.6 0 6.4l7.7 7.7-6.4 6.4c-.5.5-1.1.6-1.7.4zm21-35.1 6.5 6.5-6.4 6.4-1.2 1.1-1.1-1.1-6.4-6.4 6.5-6.5c.5-.6 1.5-.6 2.1 0zm-8.6 28.3 7.5-7.6 7.5 7.5-6.4 6.5c-.6.6-1.6.6-2.1 0z" fill="#5c2fa8" fill-rule="nonzero"/></g></svg>