<svg height="107" viewBox="0 0 107 107" width="107" xmlns="http://www.w3.org/2000/svg"><g fill="none" fill-rule="evenodd"><path d="m0 0h107v107h-107z" fill="#f8f3ff"/><path d="m56.2941176 15c20.4712824 1.1874766 36.7058824 18.1646641 36.7058824 38.9336461s-16.2346 37.7461695-36.7058824 38.9336461zm-32.1604564 64.0149453 27.5722212-27.5722212v16.4524322l-18.8286552 18.8286551c-3.2872251-2.1219372-6.2349071-4.7247192-8.743566-7.7088661zm12.8975845 10.043592 14.6746367-14.6746367v18.4833916c-5.2355642-.3036988-10.1940128-1.6401863-14.6746367-3.8087549zm-15.6662553-13.7636655c-2.2632423-3.4506948-3.9939464-7.2820169-5.0752902-11.377142l35.4161822-35.4161822v16.4524322zm-6.105263-16.8359135c-.1715507-1.4846405-.2597274-2.9946792-.2597274-4.5253122 0-20.768982 16.2346-37.7461695 36.7058824-38.9336461v7.0128034z" fill="#5c2fa8" fill-rule="nonzero"/></g></svg>