<svg height="30" viewBox="0 0 102 30" width="102" xmlns="http://www.w3.org/2000/svg"><g fill="none"><path d="m97.648 30h-94.1a3.554 3.554 0 0 1 -3.548-3.55v-22.905a3.55 3.55 0 0 1 3.547-3.545h94.1c1.955 0 3.603 1.59 3.603 3.545v22.905c0 1.954-1.648 3.55-3.602 3.55z" fill="#a6a6a6"/><path d="m100.525 26.451a2.873 2.873 0 0 1 -2.877 2.872h-94.102a2.876 2.876 0 0 1 -2.878-2.872v-22.907a2.88 2.88 0 0 1 2.879-2.877h94.1c1.59 0 2.875 1.29 2.875 2.877l.002 22.907z" fill="#000"/><path d="m22.596 14.838c-.023-2.417 1.98-3.592 2.07-3.648-1.133-1.652-2.889-1.878-3.506-1.896-1.476-.155-2.907.883-3.658.883-.767 0-1.924-.869-3.171-.843-1.605.024-3.106.954-3.93 2.397-1.7 2.942-.432 7.266 1.196 9.645.815 1.164 1.767 2.464 3.012 2.418 1.218-.05 1.673-.777 3.144-.777 1.457 0 1.885.778 3.155.749 1.308-.021 2.13-1.17 2.918-2.345.94-1.335 1.319-2.65 1.334-2.717-.03-.01-2.54-.967-2.566-3.865zm-2.4-7.108c.655-.82 1.104-1.936.98-3.068-.95.043-2.136.657-2.819 1.459-.604.707-1.145 1.865-1.005 2.955 1.065.079 2.16-.539 2.844-1.346zm20.038 15.898h-1.704l-.934-2.933h-3.242l-.89 2.933h-1.657l3.213-9.981h1.985l3.228 9.981zm-2.918-4.163-.844-2.605c-.09-.266-.256-.893-.502-1.88h-.03a76.611 76.611 0 0 1 -.475 1.88l-.829 2.606h2.68zm11.18.476c0 1.224-.33 2.192-.992 2.902-.592.632-1.329.948-2.207.948-.948 0-1.629-.34-2.044-1.02h-.03v3.79h-1.598v-7.76c0-.77-.02-1.56-.06-2.37h1.407l.09 1.14h.03c.532-.86 1.343-1.29 2.428-1.29.849 0 1.557.337 2.124 1.008.569.672.852 1.555.852 2.651zm-1.629.059c0-.701-.157-1.279-.473-1.733a1.636 1.636 0 0 0 -1.392-.711 1.66 1.66 0 0 0 -1.073.392 1.81 1.81 0 0 0 -.63 1.03 2.1 2.1 0 0 0 -.075.488v1.2c0 .524.161.965.482 1.326s.738.54 1.251.54c.602 0 1.071-.232 1.407-.695.336-.465.504-1.076.504-1.837zm9.908-.059c0 1.224-.331 2.192-.994 2.902-.592.632-1.327.948-2.205.948-.949 0-1.63-.34-2.044-1.02h-.03v3.79h-1.599v-7.76c0-.77-.02-1.56-.06-2.37h1.407l.09 1.14h.03c.533-.86 1.342-1.29 2.428-1.29.85 0 1.558.337 2.127 1.008.566.672.85 1.555.85 2.651zm-1.63.059c0-.701-.157-1.279-.475-1.733-.345-.474-.808-.711-1.39-.711-.397 0-.755.132-1.075.392a1.82 1.82 0 0 0 -.629 1.03 2.1 2.1 0 0 0 -.075.488v1.2c0 .524.16.965.48 1.326.321.36.738.54 1.252.54.603 0 1.072-.232 1.407-.695.336-.465.504-1.076.504-1.837zm10.885.829c0 .849-.296 1.54-.887 2.073-.65.583-1.556.874-2.719.874-1.074 0-1.935-.206-2.587-.621l.37-1.333a4.383 4.383 0 0 0 2.312.637c.602 0 1.07-.136 1.407-.407.335-.27.503-.636.503-1.09a1.39 1.39 0 0 0 -.415-1.023c-.275-.278-.735-.534-1.377-.773-1.748-.65-2.62-1.605-2.62-2.861 0-.82.305-1.492.918-2.018.61-.523 1.425-.785 2.444-.785.907 0 1.663.16 2.265.475l-.4 1.303c-.563-.305-1.198-.457-1.91-.457-.563 0-1.002.138-1.317.414-.267.248-.4.547-.4.904 0 .394.152.72.458.977.267.237.75.494 1.452.77.859.345 1.49.75 1.895 1.214.406.462.608 1.04.608 1.73zm5.286-3.198h-1.763v3.495c0 .888.311 1.332.934 1.332.285 0 .522-.025.71-.075l.043 1.215c-.315.118-.73.177-1.243.177-.632 0-1.125-.193-1.481-.577-.355-.386-.533-1.032-.533-1.94v-3.628h-1.05v-1.2h1.05v-1.317l1.57-.475v1.792h1.762v1.2zm7.951 2.34c0 1.105-.314 2.014-.947 2.724-.662.731-1.541 1.095-2.637 1.095-1.055 0-1.896-.35-2.523-1.05s-.94-1.585-.94-2.65c0-1.116.322-2.03.97-2.74.645-.71 1.517-1.066 2.612-1.066 1.056 0 1.905.35 2.547 1.052.613.68.92 1.558.92 2.634h-.002zm-1.657.052c0-.665-.142-1.234-.43-1.709-.335-.575-.814-.862-1.435-.862-.643 0-1.131.288-1.467.862-.287.475-.428 1.053-.428 1.737 0 .664.142 1.233.428 1.707.346.575.83.861 1.453.861.61 0 1.09-.292 1.435-.876.295-.483.443-1.059.443-1.722zm6.855-2.186a2.693 2.693 0 0 0 -.502-.045c-.563 0-.998.213-1.305.638-.266.375-.4.85-.4 1.422v3.775h-1.597l.015-4.93c0-.83-.021-1.585-.06-2.265h1.392l.059 1.376h.045a2.46 2.46 0 0 1 .798-1.14 1.933 1.933 0 0 1 1.155-.386c.149 0 .282.012.4.03zm7.152 1.852c0 .287-.019.528-.059.725h-4.797c.02.71.251 1.254.697 1.63.404.334.927.502 1.569.502.71 0 1.357-.113 1.94-.34l.251 1.11c-.681.296-1.485.444-2.413.444-1.116 0-1.992-.329-2.63-.985-.635-.657-.953-1.537-.953-2.643 0-1.086.296-1.99.89-2.71.62-.77 1.46-1.155 2.516-1.155 1.036 0 1.822.385 2.355 1.155.422.611.634 1.367.634 2.265zm-1.525-.415c.01-.475-.093-.885-.31-1.23-.278-.445-.703-.667-1.275-.667-.523 0-.948.217-1.273.652-.266.345-.424.76-.472 1.244h3.33zm-53.304-11.766c0 .881-.265 1.546-.794 1.992-.49.413-1.185.618-2.087.618-.448 0-.83-.018-1.15-.058v-4.822a8.481 8.481 0 0 1 1.353-.103c.86 0 1.508.188 1.943.56.49.423.735 1.026.735 1.813zm-.83.02c0-.572-.15-1.01-.454-1.316-.303-.306-.746-.458-1.329-.458-.247 0-.457.015-.633.05v3.666c.098.015.274.023.531.023.602 0 1.065-.168 1.393-.503.328-.334.491-.822.491-1.462h.002zm5.224.75c0 .543-.156.99-.466 1.338-.325.36-.758.539-1.295.539-.518 0-.932-.172-1.24-.518-.307-.343-.461-.777-.461-1.3 0-.548.157-.998.476-1.346s.745-.523 1.284-.523c.518 0 .935.173 1.251.516.3.335.45.767.45 1.295l.002-.001zm-.816.025c0-.325-.07-.605-.21-.838-.164-.282-.4-.423-.704-.423-.317 0-.557.14-.722.423-.141.232-.21.517-.21.853 0 .327.07.606.21.84.17.282.407.423.713.423.3 0 .536-.143.705-.431.146-.239.218-.52.218-.848zm6.708-1.763-1.106 3.535h-.72l-.458-1.535a11.292 11.292 0 0 1 -.285-1.143h-.015a8.252 8.252 0 0 1 -.284 1.143l-.487 1.535h-.727l-1.04-3.535h.807l.4 1.68c.097.397.176.776.24 1.135h.015c.057-.296.154-.672.29-1.128l.503-1.687h.64l.48 1.651c.117.403.212.791.285 1.164h.021c.052-.363.133-.751.24-1.164l.429-1.651h.773zm4.075 3.535h-.787v-2.025c0-.624-.236-.936-.712-.936a.71.71 0 0 0 -.568.257.915.915 0 0 0 -.217.606v2.097h-.788v-2.524c0-.311-.009-.648-.027-1.013h.69l.037.553h.023c.09-.172.227-.313.406-.427.213-.131.451-.198.712-.198.33 0 .605.107.823.32.272.263.407.653.407 1.172v2.117zm2.167 0h-.786v-5.158h.786zm4.627-1.797c0 .543-.155.99-.465 1.338-.326.36-.757.539-1.296.539-.52 0-.933-.172-1.24-.518-.307-.343-.461-.777-.461-1.3 0-.548.159-.998.477-1.346s.745-.523 1.282-.523c.52 0 .938.173 1.253.516.3.335.451.767.451 1.295v-.001zm-.816.025c0-.325-.07-.605-.21-.838-.165-.282-.4-.423-.705-.423-.316 0-.556.14-.72.423-.142.232-.211.517-.211.853 0 .327.07.606.21.84.171.282.408.423.714.423.3 0 .535-.143.705-.431.146-.239.218-.52.218-.848v.001zm4.62 1.772h-.705l-.06-.407h-.02c-.242.324-.586.487-1.033.487-.334 0-.604-.107-.807-.32a1.003 1.003 0 0 1 -.278-.72c0-.432.18-.761.542-.99.362-.228.87-.34 1.525-.334v-.066c0-.465-.244-.697-.735-.697-.348 0-.655.087-.92.26l-.16-.516c.328-.202.735-.305 1.212-.305.924 0 1.388.488 1.388 1.463v1.302c0 .352.017.634.05.842h.002zm-.816-1.215v-.545c-.866-.015-1.3.222-1.3.712 0 .184.05.323.15.415a.556.556 0 0 0 .385.137.796.796 0 0 0 .481-.164.668.668 0 0 0 .285-.556zm5.283 1.215h-.698l-.037-.568h-.021c-.223.432-.602.648-1.136.648a1.33 1.33 0 0 1 -1.062-.502c-.282-.336-.421-.769-.421-1.302 0-.572.152-1.035.457-1.39.297-.33.66-.495 1.092-.495.476 0 .808.16.998.48h.015v-2.028h.786v4.205c0 .345.009.662.028.953h-.001zm-.814-1.491v-.59a.896.896 0 0 0 -.308-.724.774.774 0 0 0 -.525-.193.807.807 0 0 0 -.691.35c-.167.232-.252.53-.252.894 0 .35.08.633.241.851.17.233.4.35.687.35a.758.758 0 0 0 .621-.291.97.97 0 0 0 .225-.647zm7.536-.306c0 .543-.155.99-.465 1.338-.326.36-.758.539-1.296.539-.517 0-.931-.172-1.24-.518-.308-.343-.462-.777-.462-1.3 0-.548.16-.998.477-1.346.318-.348.746-.523 1.285-.523.517 0 .935.173 1.25.516.3.335.45.767.45 1.295zm-.815.025c0-.325-.07-.605-.21-.838-.166-.282-.4-.423-.706-.423-.315 0-.555.14-.72.423-.142.232-.212.517-.212.853 0 .327.071.606.21.84.171.282.408.423.715.423.3 0 .536-.143.705-.431.145-.239.218-.52.218-.848zm5.041 1.772h-.785v-2.025c0-.624-.237-.936-.712-.936a.707.707 0 0 0 -.568.257.911.911 0 0 0 -.22.606v2.097h-.787v-2.524c0-.311-.007-.648-.027-1.013h.69l.038.553h.02a1.15 1.15 0 0 1 .408-.427c.214-.131.452-.198.713-.198.33 0 .604.107.822.32.272.263.407.653.407 1.172v2.117h.001zm5.29-2.947h-.865v1.717c0 .437.153.655.457.655.142 0 .259-.012.351-.037l.02.597c-.155.058-.36.088-.61.088-.31 0-.552-.095-.728-.284-.174-.189-.262-.507-.262-.953v-1.783h-.516v-.588h.517v-.649l.77-.232v.88h.866zm4.161 2.947h-.787v-2.01c0-.634-.237-.951-.711-.951-.365 0-.614.184-.75.551a1.017 1.017 0 0 0 -.038.283v2.126h-.784v-5.157h.785v2.13h.015c.247-.387.602-.58 1.062-.58.325 0 .594.106.808.32.267.265.4.661.4 1.185v2.102zm4.292-1.935c0 .14-.01.26-.03.356h-2.355c.01.35.123.615.341.8.2.165.457.248.772.248.349 0 .666-.056.953-.168l.123.546c-.335.146-.73.218-1.186.218-.548 0-.98-.16-1.29-.483-.316-.322-.47-.755-.47-1.297 0-.534.145-.978.436-1.332.305-.378.717-.567 1.237-.567.508 0 .894.188 1.154.566.212.3.316.672.316 1.113zm-.75-.203a1.053 1.053 0 0 0 -.152-.604c-.136-.218-.345-.328-.626-.328a.747.747 0 0 0 -.625.32c-.13.17-.208.374-.233.611h1.635z" fill="#fff"/></g></svg>