<svg height="30" viewBox="0 0 102 30" width="102" xmlns="http://www.w3.org/2000/svg" xmlns:xlink="http://www.w3.org/1999/xlink"><linearGradient id="a" x1="61.034%" x2="26.52%" y1="4.962%" y2="71.903%"><stop offset="0" stop-color="#00a0ff"/><stop offset=".007" stop-color="#00a1ff"/><stop offset=".26" stop-color="#00beff"/><stop offset=".512" stop-color="#00d2ff"/><stop offset=".76" stop-color="#00dfff"/><stop offset="1" stop-color="#00e3ff"/></linearGradient><linearGradient id="b" x1="107.587%" x2="-130.461%" y1="49.977%" y2="49.977%"><stop offset="0" stop-color="#ffe000"/><stop offset=".409" stop-color="#ffbd00"/><stop offset=".775" stop-color="#ffa500"/><stop offset="1" stop-color="#ff9c00"/></linearGradient><linearGradient id="c" x1="86.242%" x2="-50.132%" y1="30.901%" y2="136.012%"><stop offset="0" stop-color="#ff3a44"/><stop offset="1" stop-color="#c31162"/></linearGradient><linearGradient id="d" x1="-18.805%" x2="42.099%" y1="-11.864%" y2="35.074%"><stop offset="0" stop-color="#32a071"/><stop offset=".069" stop-color="#2da771"/><stop offset=".476" stop-color="#15cf74"/><stop offset=".801" stop-color="#06e775"/><stop offset="1" stop-color="#00f076"/></linearGradient><g fill="none"><path d="m97.5 30h-93.75a3.761 3.761 0 0 1 -3.75-3.75v-22.5a3.761 3.761 0 0 1 3.75-3.75h93.75a3.761 3.761 0 0 1 3.75 3.75v22.5a3.761 3.761 0 0 1 -3.75 3.75z" fill="#000"/><path d="m97.5.6a3.153 3.153 0 0 1 3.15 3.15v22.5a3.153 3.153 0 0 1 -3.15 3.15h-93.75a3.153 3.153 0 0 1 -3.15-3.15v-22.5a3.153 3.153 0 0 1 3.15-3.15zm0-.6h-93.75a3.761 3.761 0 0 0 -3.75 3.75v22.5a3.761 3.761 0 0 0 3.75 3.75h93.75a3.761 3.761 0 0 0 3.75-3.75v-22.5a3.761 3.761 0 0 0 -3.75-3.75z" fill="#a6a6a6"/><path d="m35.563 7.682c0 .629-.186 1.13-.558 1.502-.423.445-.975.667-1.653.667a2.27 2.27 0 0 1 -1.658-.676c-.453-.45-.68-1.009-.68-1.675 0-.668.227-1.225.682-1.675a2.262 2.262 0 0 1 1.655-.675c.322 0 .63.063.922.188.293.126.53.292.705.502l-.395.398c-.299-.357-.71-.535-1.233-.535-.474 0-.885.165-1.23.5-.345.332-.517.764-.517 1.297s.172.964.517 1.297c.345.334.756.5 1.23.5.503 0 .921-.167 1.256-.502.218-.217.344-.522.378-.912h-1.635v-.54h2.18c.023.118.032.231.032.34h.002zm3.458-1.88h-2.05v1.428h1.848v.54h-1.849v1.427h2.05v.553h-2.627v-4.5h2.627v.553h.001zm2.439 3.948h-.58v-3.947h-1.258v-.553h3.093v.553h-1.255zm3.493 0v-4.5h.578v4.5zm3.143 0h-.577v-3.947h-1.259v-.553h3.093v.553h-1.257zm7.112-.581c-.443.454-.993.682-1.65.682-.659 0-1.208-.228-1.65-.682-.443-.455-.663-1.011-.663-1.669s.22-1.215.663-1.669c.442-.454.991-.682 1.65-.682.652 0 1.202.229 1.646.685a2.3 2.3 0 0 1 .666 1.666c0 .658-.221 1.215-.663 1.669zm-2.873-.378c.333.338.74.507 1.222.507s.89-.169 1.223-.507c.332-.337.5-.768.5-1.291 0-.524-.168-.954-.5-1.292a1.652 1.652 0 0 0 -1.223-.505c-.483 0-.89.168-1.223.505-.333.338-.5.768-.5 1.292s.167.955.5 1.291zm4.346.959v-4.5h.705l2.186 3.501h.025l-.025-.868v-2.633h.578v4.5h-.603l-2.287-3.67h-.026l.026.867v2.803h-.578z" fill="#fff" stroke="#fff" stroke-width=".2"/><path d="m51.102 16.314c-1.764 0-3.202 1.341-3.202 3.19 0 1.837 1.438 3.19 3.202 3.19s3.203-1.354 3.203-3.19c0-1.849-1.439-3.19-3.203-3.19zm0 5.122c-.967 0-1.8-.797-1.8-1.932 0-1.148.833-1.934 1.8-1.934.968 0 1.8.785 1.8 1.934 0 1.135-.833 1.933-1.8 1.933zm-6.985-5.122c-1.764 0-3.203 1.341-3.203 3.19 0 1.837 1.438 3.19 3.203 3.19 1.764 0 3.202-1.354 3.202-3.19 0-1.849-1.439-3.19-3.203-3.19zm0 5.122c-.966 0-1.8-.797-1.8-1.932 0-1.148.834-1.934 1.8-1.934.967 0 1.8.785 1.8 1.934 0 1.135-.833 1.933-1.8 1.933zm-8.309-4.143v1.353h3.238c-.096.762-.35 1.317-.737 1.704-.47.471-1.207.99-2.5.99-1.995 0-3.553-1.606-3.553-3.6 0-1.993 1.559-3.6 3.553-3.6a3.45 3.45 0 0 1 2.44.966l.955-.954c-.81-.772-1.885-1.364-3.395-1.364-2.73 0-5.026 2.223-5.026 4.953s2.295 4.954 5.026 4.954c1.474 0 2.586-.483 3.456-1.39.895-.894 1.173-2.15 1.173-3.165 0-.315-.024-.604-.073-.846h-4.555zm33.981 1.05c-.266-.713-1.076-2.029-2.73-2.029-1.644 0-3.01 1.293-3.01 3.19 0 1.788 1.353 3.19 3.165 3.19 1.463 0 2.308-.895 2.659-1.414l-1.088-.726c-.362.533-.858.883-1.57.883-.713 0-1.221-.327-1.547-.967l4.265-1.763-.145-.364zm-4.35 1.065c-.036-1.233.955-1.862 1.667-1.862.555 0 1.028.278 1.185.677zm-3.468 3.092h1.403v-9.375h-1.404v9.375zm-2.295-5.474h-.049c-.315-.375-.918-.712-1.68-.712-1.594 0-3.056 1.402-3.056 3.203 0 1.787 1.462 3.177 3.057 3.177.761 0 1.365-.338 1.68-.726h.047v.46c0 1.221-.652 1.873-1.702 1.873-.859 0-1.39-.614-1.608-1.135l-1.22.508c.35.846 1.28 1.884 2.827 1.884 1.642 0 3.033-.967 3.033-3.322v-5.729h-1.33v.52h.001zm-1.607 4.41c-.968 0-1.776-.81-1.776-1.92 0-1.124.81-1.946 1.776-1.946.954 0 1.702.822 1.702 1.946 0 1.112-.748 1.922-1.702 1.922zm18.285-8.312h-3.354v9.376h1.4v-3.552h1.954c1.552 0 3.076-1.123 3.076-2.912 0-1.79-1.525-2.91-3.076-2.91zm.037 4.518h-1.991v-3.212h1.99c1.047 0 1.64.866 1.64 1.605 0 .727-.592 1.608-1.639 1.608zm8.648-1.346c-1.013 0-2.063.445-2.498 1.435l1.244.517c.265-.517.76-.687 1.279-.687.723 0 1.459.435 1.471 1.208v.095a3.098 3.098 0 0 0 -1.46-.361c-1.338 0-2.702.735-2.702 2.11 0 1.255 1.099 2.063 2.329 2.063.941 0 1.46-.422 1.785-.917h.049v.724h1.35v-3.595c0-1.665-1.242-2.594-2.846-2.594zm-.169 5.137c-.458 0-1.097-.228-1.097-.794 0-.725.795-1.002 1.483-1.002.615 0 .905.132 1.279.313a1.697 1.697 0 0 1 -1.665 1.483zm7.937-4.933-1.605 4.065h-.047l-1.665-4.065h-1.507l2.497 5.681-1.425 3.16h1.46l3.848-8.84h-1.556zm-12.605 6h1.4v-9.375h-1.4z" fill="#fff"/><path d="m1.076.404c-.216.23-.346.588-.346 1.052v16.588c0 .465.129.822.347 1.053l.056.054 9.29-9.293v-.217l-9.293-9.291z" fill="url(#a)" transform="translate(6.75 5.25)"/><path d="m13.521 12.96-3.098-3.1v-.218l3.098-3.097.07.04 3.67 2.084c1.048.596 1.048 1.57 0 2.165l-3.67 2.085z" fill="url(#b)" transform="translate(6.75 5.25)"/><path d="m13.591 12.919-3.166-3.169-9.348 9.349c.345.366.915.41 1.559.045l10.957-6.225" fill="url(#c)" transform="translate(6.75 5.25)"/><path d="m13.591 6.583-10.957-6.225c-.642-.365-1.212-.32-1.558.045l9.348 9.348 3.168-3.167v-.001z" fill="url(#d)" transform="translate(6.75 5.25)"/><path d="m20.273 18.099-10.889 6.186c-.609.345-1.153.323-1.502.008l-.056.056.055.054c.35.315.892.337 1.502-.01l10.958-6.224-.07-.07z" fill="#000" opacity=".2"/><path d="m7.826 24.238c-.217-.23-.347-.588-.347-1.053v.11c0 .465.129.823.347 1.054l.057-.056zm16.185-8.263-3.738 2.123.069.07 3.67-2.086c.523-.297.785-.69.785-1.083-.045.357-.311.705-.786.975z" fill="#000" opacity=".12"/><path d="m9.385 5.717 14.626 8.31c.475.27.743.618.786.974 0-.392-.262-.785-.786-1.082l-14.626-8.312c-1.048-.596-1.905-.1-1.905 1.1v.11c0-1.2.857-1.695 1.905-1.1z" fill="#fff" opacity=".25"/></g></svg>