<svg height="40" viewBox="0 0 40 40" width="40" xmlns="http://www.w3.org/2000/svg" xmlns:xlink="http://www.w3.org/1999/xlink"><linearGradient id="a" x1="11.864%" x2="66.481%" y1="-22.312%" y2="127.816%"><stop offset="0" stop-color="#5c2fa8"/><stop offset="1" stop-color="#7d30ff"/></linearGradient><linearGradient id="b"><stop offset="0" stop-color="#00a4ff"/><stop offset="1" stop-color="#00d8ff"/></linearGradient><linearGradient id="c" x1="11.864%" x2="66.481%" xlink:href="#b" y1="-22.312%" y2="127.816%"/><linearGradient id="d" x1="11.864%" x2="66.481%" xlink:href="#b" y1="-22.299%" y2="127.802%"/><g fill="none" fill-rule="evenodd"><path d="m33.248 13.334c.052.55.086 1.103.086 1.666 0 10.109-8.225 18.334-18.334 18.334-.563 0-1.117-.035-1.666-.086v6.752h26.666v-26.666z" fill="url(#a)"/><path d="m10 10h19.128c-2.061-5.822-7.6-10-14.128-10-8.285 0-15 6.715-15 15 0 6.529 4.178 12.067 10 14.128z" fill="url(#c)"/><path d="m13.334 29.901c.546.06 1.103.098 1.666.098 8.285 0 15-6.714 15-14.999 0-.563-.038-1.118-.098-1.666h-16.568v16.566z" fill="url(#d)"/></g></svg>