<svg height="40" viewBox="0 0 40 40" width="40" xmlns="http://www.w3.org/2000/svg" xmlns:xlink="http://www.w3.org/1999/xlink"><linearGradient id="a"><stop offset="0" stop-color="#5c2fa8"/><stop offset="1" stop-color="#7d30ff"/></linearGradient><linearGradient id="b" x1="42.206%" x2="53.368%" xlink:href="#a" y1="-22.312%" y2="127.816%"/><linearGradient id="c" x1="14.21%" x2="65.467%" xlink:href="#a" y1="-22.312%" y2="127.816%"/><linearGradient id="d" x1="14.21%" x2="65.467%" y1="-22.312%" y2="127.816%"><stop offset="0" stop-color="#00a4ff"/><stop offset="1" stop-color="#00d8ff"/></linearGradient><g fill="none" fill-rule="evenodd"><path d="m40 .26v30.967h-.089c-.606 4.377-4.253 7.742-8.661 7.742s-8.055-3.365-8.661-7.742h17.321c.059-.421.089-.852.089-1.29 0-4.989-3.918-9.032-8.75-9.032s-8.75 4.043-8.75 9.032c0 .438.03.869.089 1.29h-.088v-30.967z" fill="url(#b)"/><ellipse cx="8.75" cy="30.968" fill="url(#c)" rx="8.75" ry="9.032"/><path d="m0 0h17.5v18.065h-17.5z" fill="url(#d)"/></g></svg>