<svg height="55" viewBox="0 0 251 55" width="251" xmlns="http://www.w3.org/2000/svg"><g fill="none" fill-rule="evenodd" transform="translate(1 1)"><rect fill="#fff" fill-rule="nonzero" height="53" rx="10" stroke="#ea532a" width="249"/><g fill="#ea532a"><text font-family="Helvetica-Bold, Helvetica" font-size="9" font-weight="bold" transform="translate(52.5 10.5)"><tspan x="0" y="9">FEATURED ON</tspan></text><text font-family="Helvetica-Bold, Helvetica" font-size="21" font-weight="bold" transform="translate(51.5 19.5)"><tspan x="0" y="20">Product Hunt</tspan></text><g><path d="m226.502 22.5h-11.002l5.501-10z" fill-rule="nonzero"/><text font-family="Helvetica-Bold, Helvetica" font-size="13" font-weight="bold" transform="translate(209.5 12.5)"><tspan x=".1" y="27">575</tspan></text></g></g><g fill-rule="nonzero"><path d="m41.5 27c0 8.56-6.94 15.5-15.5 15.5s-15.5-6.94-15.5-15.5 6.94-15.5 15.5-15.5 15.5 6.94 15.5 15.5" fill="#ea532a"/><path d="m27.933 27.456h-4.34v-4.65h4.34c1.269 0 2.298 1.04 2.298 2.325 0 1.284-1.03 2.325-2.298 2.325m0-7.75h-7.404v15.5h3.064v-4.65h4.34c2.96 0 5.361-2.429 5.361-5.425s-2.4-5.425-5.361-5.425" fill="#fff"/></g></g></svg>