<svg height="47" viewBox="0 0 50 47" width="50" xmlns="http://www.w3.org/2000/svg"><g fill="none"><path d="m40.4395299 28.8709402s-3.767094-1.5666667-4.6202991-2.3102564c-.8532052-.7433761-1.1341881-9.8155983-1.6818376-11.5190171l-1.1211539.6277777c-7.3115384 2.6767094-10.9807692-1.6414529-10.9807692-1.6414529-1.5418804.5876068-3.4604701 1.1074786-3.7694445 2.0688034-.5474359 1.7034188-.667735 9.7205128-1.5209401 10.4638889-.8534188.743376-4.6205129 2.3102564-4.6205129 2.3102564-.6985042.3491453-1.5307692.3282051-2.19893157-.0758547.15363247.6916666.17585467 1.5797008.69893157 1.7572649.5303419.1799146.7373932-.0132478 1.2948718.1002137-2.63290594.7852564-2.84829055 3.4262821-2.10982902 4.2429487 1.00256412 1.1087607 3.47008552 2.465171 6.83183762 3.7491453l-.9271368 1.4220086c-.7226495 1.0826923-1.2489316 2.4942307-1.2489316 2.4942307s4.0732906-.1891025 10.3700855-1.3690171c0 0 5.649359 1.665171 12.6316239 1.3782052.3177351-.0130342.5410257-.3119658.440171-.6134616-.2886753-.8632478-.8797009-2.4557692-1.6061966-3.4604701.9-.3470085 1.4794872-.6068376 1.4794872-.6068376 2.4096153-1.0470085 4.1666666-2.1008547 4.9741453-2.9938034.45-.4978632.969017-1.3393162.3247863-3.0331196-1.1346154-.1452992-1.7715812-.356624-3.1252137-1.2098291-.3228632-.3606838.1012821-1.3991453.4852564-1.7816239zm-19.5373931 2.3557692-.3675214.917735s-3.7735043-.9474359-6.4747863-1.2972222l.1570512-.0478632s3.7910257-1.0132479 4.5358975-1.3183761c.7446581-.3051282 2.0446581-7.1869658 2.0446581-7.1869658l.6463675 3.5258547c.332906 1.8173077.1452992 3.6916667-.5416666 5.4068376zm10.759829 0c-.6869658-1.7151709-.8745726-3.5895299-.541453-5.4070513l.6463675-3.5258547s1.3 6.8818376 2.0446582 7.1869658c.4311965.1767094 1.8829059.5905983 3.0290598.907906-1.5630342.2638889-5.1786325.8380342-5.1786325.8380342z" fill="#c9e084"/><g fill="#283182"><path d="m49.3132479 46.5583333h-48.62649576c-.22008547 0-.42457265-.1128205-.54209402-.2989316-.11752137-.1858974-.13119658-.4194444-.03653846-.6179487l2.91880342-6.1205128c.10641025-.223077.33162393-.365171.57863248-.365171h8.07286324c.3540598 0 .6410256.2869658.6410256.6410257 0 .3540598-.2869658.6410256-.6410256.6410256h-7.66837606l-2.30726496 4.8384616h46.59444442l-2.3072649-4.8384616h-7.241453c-.3540599 0-.6410257-.2869658-.6410257-.6410256 0-.3540599.2869658-.6410257.6410257-.6410257h7.6457265c.2470085 0 .4722222.142094.5786324.365171l2.9188035 6.1205128c.0946581.1985043.0809829.4318376-.0365385.6179487-.1173077.1858974-.3217949.2989316-.5418803.2989316z"/><g transform="translate(2.564103)"><path d="m24.3141026 37.4497863c-.224359 0-.4418804-.1179487-.5596154-.3273504-.1732906-.3087607-.0634616-.699359.2450854-.8728633 2.5615385-1.4378205 6.0696582-3.4068376 9.1420941-3.6371794.3502136-.0288462.6606837.2382478.6871795.5912393.0264957.3529914-.2380342.6606837-.5910257.6871795-2.7888889.209188-6.1536325 2.0978632-8.6104701 3.476923-.0993589.0555556-.2070513.0820513-.3132478.0820513z"/><path d="m42.2096154 27.3820513c-.6209402-.4591881-1.7754274-.7559829-3.749359.4371795-.4694444.2837607-1.075.3032051-1.5801282.0508547-.0132479-.006624-.0269231-.0128205-.0405983-.0183761-1.4019231-.5831197-3.8209402-1.682906-4.4237179-2.183547-.3455129-.5318376-.6168804-3.7141026-.7794872-5.6222222-.1735043-2.0358975-.323718-3.7944445-.5739316-4.5728633-.215171-.6694444-.8852564-1.3008547-2.048718-1.9299145-.3115384-.1685898-.7002137-.0525641-.8685897.2589744-.1683761.3113247-.0525641.7002136.2589743.8685897.4762821.2576923.7946581.4799145 1.0094017.6636752-4.8641025 1.4222222-8.5149572-.701282-10.0534188-1.8705128.3754274-.1245727.7527778-.2391026 1.1215812-.3399573.2769231-.075641.4698718-.3264957.4720086-.6136752l.0168803-2.3470085c.574359.3153846 1.1192308.4893162 1.4399573.4893162.3301282 0 .8976496-.1846154 1.4905983-.517735l.0173077 2.375641c.0021367.2873931.1950854.5382478.4722222.6136752.0098291.0027778.9976496.2739316 2.1455128.7115385.0752137.0286324.1523504.042094.2279915.042094.2583333 0 .501923-.157265.5993589-.4130342.1260684-.3307692-.0401709-.7010684-.3707265-.8273504-.7232906-.2754274-1.3782051-.4861111-1.7957265-.6130342l-.0207264-2.86324789c.5425213-.56559829.9384615-1.26880342.9384615-2.06987179 0-.25064103.0040598-.52927351.0081196-.82435898.0341881-2.39764957-.0023504-4.29615384-.7893162-5.10705128-1.0901709-1.12393162-2.8485043-1.13675214-2.9228632-1.13675214-.074359 0-1.8324787.01282052-2.9228633 1.13675214-.7871795.81111111-.8237179 2.70961538-.7893162 5.10705128.0042735.29529915.0081196.57371795.0081196.82435898 0 .82542735.4209402 1.54658119.9888889 2.12051282l-.0202991 2.80961536c-1.524359.4534188-5.315171 1.7393163-5.8655983 3.4517094-.2502137.7786325-.4002137 2.5369658-.5739316 4.5728633-.1628206 1.9081196-.4339744 5.0901709-.7794872 5.6222222-.6025641.5004273-3.02179489 1.6002137-4.42371797 2.183547-.01346154.0055556-.02713675.0117521-.04059829.0183761-.5051282.2525641-1.11047008.2331196-1.58034188-.0510684-1.9732906-1.192735-3.12799145-.8961539-3.7491453-.4369658-.28461538.2102564-.34487179.6117521-.13440171.8963675.21025641.2848291.61196581.3444444.89636752.1344017.42628206-.3147436 1.2732906-.1316239 2.32371795.5032051.45811966.2773505.97307693.4166667 1.49209402.4166667.44252137 0 .88803419-.1014957 1.3042735-.3053419.47820513-.1995726 3.88333336-1.6333333 4.77585466-2.4106837.6279915-.5472223.8459402-2.3891026 1.1931624-6.4615385.1529915-1.7940171.3113248-3.649359.5170941-4.2895299.1779914-.5536325 1.4241453-1.2735043 2.9393162-1.8899573.9542735.8190171 4 3.1029915 8.2852564 3.1029915 1.1568376 0 2.4044872-.1688034 3.7245727-.575641.142094.8726495.2623931 2.2792735.3794871 3.6521367.3472223 4.0726496.565171 5.9145299 1.1931624 6.4613248.8925214.7777778 4.2974359 2.2115385 4.7758547 2.4108974.4160257.2038462.8615385.3053419 1.3042735.3053419.5190171 0 1.0337607-.1393162 1.4918804-.416453 1.050641-.6352564 1.8974359-.8181624 2.3239316-.5032051.284188.2100427.6858974.1504273.8963675-.1344017.2098291-.2846154.1495727-.6861111-.1350427-.8965812zm-21.8017094-25.32970087c.699359-.72094017 1.959188-.74679487 2.0036325-.7474359.042735.00064103 1.3047008.0292735 2.0014957.7474359.4803419.49487179.4461538 2.9025641.4277778 4.19615384-.0042735.30170941-.0083334.58653847-.0083334.84273505 0 1.26474359-2.0224359 2.25918803-2.418376 2.2792735-.4032052-.02008547-2.4256411-1.01452991-2.4256411-2.2792735 0-.25619658-.0040598-.54102564-.0083333-.84273505-.0183761-1.29358974-.0525641-3.70106837.4277778-4.19615384z"/><path d="m34.8529915 41.9096154c-.3470086-.9305556-1.6047009-3.9786325-3.2192308-4.125641-.6681624-.0621795-1.4299145.0967948-2.3130342.2797008-1.1010684.2279915-2.3497863.4856838-3.7220086.3882479-.9222222-.0660257-2.6658119-1.0450855-4.5113247-2.081624-2.7982906-1.5715812-6.2805556-3.5277777-9.357265-3.7583333-.3574786-.0288461-.6606838.2382479-.6871795.5912393-.0264957.3529915.2380342.6608975.5912393.6871795 2.7927351.2094017 6.1378205 2.0882479 8.8254274 3.5978633 2.1450855 1.2047008 3.8393162 2.1564102 5.0478632 2.2425213 1.5497864.1113248 2.9489317-.1788461 4.0735043-.4115384.7826923-.1623932 1.458547-.3023505 1.9367521-.2587607.3717949.0339743 1.1279915 1.0047008 1.7799146 2.4391025-2.1258547-.0153846-7.6224359-.225641-13.7279915-1.8119658-7.2040598-1.8717948-11.85641024-4.2408119-13.13034186-5.6495726-.44551282-.4927351-.32521368-1.0769231-.14615385-1.4807692.40448718-.9111112 1.41794872-1.6247864 2.30726496-1.6247864 2.30555555 0 7.87628205 1.3918804 7.93226495 1.4059829.3113248.0779915.6254274-.0880341.7452992-.3760683.0014957-.0027778.3732906-.925.3732906-.925.7329059-1.8299146.9322649-3.8222223.576923-5.7608975l-1.2918803-7.0463675c-.0638889-.3485043-.3997863-.5792735-.7461539-.5149573-.3482906.0638889-.5788461.3978633-.5149572.7461539l.6237179 3.4023504c-.533547 2.7976496-1.3239316 6.0279915-1.7284188 6.6320513-.6245726.2286325-3.0235043.909188-4.359829 1.2773504-.60534192-.0760684-1.15961542-.1228632-1.61025645-.1228632-1.0724359 0-2.17905983.5882478-2.91581197 1.4833333-1.65021367.5215812-2.8568376.2047009-3.57777777-.1551282.49658119-.3038462 1.06752136-.7534188 1.47350427-1.375641.19337607-.2965812.10982906-.6935898-.18675214-.8869658-.29658119-.1931624-.69358974-.1098291-.88696581.1867521-.61025641.9356838-1.84529914 1.3636752-1.85619658 1.3673077-.20769231.0690171-.36559829.2395299-.41880342.4517094-.0534188.2121795.00512821.4371795.15555556.5963675.06752137.0715812 1.33333333 1.3773504 3.61388889 1.3771368.29017094 0 .59871794-.0239317.92179487-.0715812-.19594017.8412393-.00128205 1.6470085.56538461 2.2735042 1.72970086 1.9128206 7.22371794 4.325 13.68525644 6.0111112-3.4326923.4901709-6.2123932.5811965-7.590171.5908119.2089744-.4553419.4944445-1.0194444.8183761-1.5049145.1965812-.2944445.1173077-.6923077-.1773504-.8888889-.2944445-.1967949-.6923077-.117094-.8888889.1773504-.7553419 1.1318376-1.2938034 2.5655983-1.3162393 2.6260684-.07200858.1927351-.04700858.408547.0673077.5799145.1143162.1713676.3040598.2771368.509829.2846154.0452992.0017094.3224359.0108975.7967949.0108975 1.4696581 0 6.5403846-.3794872 11.0935897-1.1192308 5.0741453.9995726 9.266453 1.1196581 10.9741453 1.1196581.4782052 0 .7617522-.0094017.8153847-.0113248.2057692-.0074786.3952991-.1132478.509829-.2846154.1138889-.1702991.1388889-.3861111.0668804-.5788461zm-19.7036325-12.2630342c.2626068-.1076923.8155983-.3378205 1.7630342-4.4358974l.0544871.2974359c.3119659 1.7004273.1369659 3.4478632-.5059829 5.0529914l-.1606837.4010684c-.6638889-.159188-1.8514958-.4350427-3.1467949-.6929487.857906-.2452992 1.6720086-.4897436 1.9959402-.6226496z"/></g><path d="m47.2044872 30.7222222c-.0532051-.2121795-.2111111-.3826923-.4188034-.4517094-.0123932-.0042735-1.2491453-.4367521-1.8561966-1.3673077-.1933761-.2965812-.5905983-.3801282-.8869658-.1867521-.2965812.1933761-.3801282.5905983-.1867522.8869658.4051282.6213675.9756411 1.0709402 1.4720086 1.3745727-.7220086.359829-1.9294872.6767094-3.5762821.1561965-.7365384-.8950854-1.8431624-1.4833333-2.9158119-1.4833333-.4380342 0-.9739317.0440171-1.5596154.1162393-1.4324787-.3905983-3.8153846-1.0532051-4.4104701-1.2709402-.4047009-.6040598-1.1948718-3.8344017-1.7284188-6.6320512l.6237179-3.4023505c.0638889-.3482906-.1666666-.6822649-.5149572-.7461538-.3478633-.0643162-.682265.1666667-.7461539.5149573l-1.2918803 7.0463675c-.3553419 1.9386752-.1557692 3.9307692.5769231 5.7608974l.159829.399359c-3.9083333 2.0869658-8.3273504.6147436-8.3995726.5897436-.3339744-.1166667-.699359.0604701-.815812.3946581-.116453.3344017.0600427.6997863.3944444.8162393.1224359.0425214 1.8027778.6121795 4.0574787.6121795 1.7446581 0 3.8333333-.3429487 5.809829-1.532906.71453-.176282 5.6961539-1.3844017 7.8446582-1.3844017.8893162 0 1.9027777.7136752 2.3072649 1.6247863.1792735.4038462.299359.9880342-.1461538 1.4807693-.7393163.817735-2.4275641 1.8247863-4.7536325 2.8356837-.3247863.1410257-.473718.5185898-.3324786.8431624.1047008.2416667.3405983.3858975.5882478.3858975.0850428 0 .1720086-.0170941.2549146-.0534189 1.7615384-.7653846 4.0925213-1.933547 5.194017-3.1517094.5666667-.6267094.7613248-1.4324786.5653847-2.2739316.3228632.0476496.6316239.0720086.9217948.0720086 2.2801282 0 3.5463676-1.3055556 3.6138889-1.3771368.1504274-.1594017.2089744-.3844017.1555556-.5965812zm-16.0688034.240171-.1606838-.4010684c-.6429487-1.6053419-.8179487-3.3525641-.5059829-5.0529915l.0544872-.2974359c.9474359 4.098077 1.5004273 4.3284188 1.7630342 4.4361111.3239316.1326924 1.1378205.3771368 1.9957265.6224359-1.2952992.2576924-2.4835471.5337607-3.1465812.6929488z"/></g></g></svg>