<svg height="50" viewBox="0 0 43 50" width="43" xmlns="http://www.w3.org/2000/svg"><g fill="none"><path d="m18.8083333 5.39054054c-6.0283783 0-10.91554051 4.88693696-10.91554051 10.91554056 0 6.0283784 4.88693691 10.9155405 10.91554051 10.9155405 6.0283784 0 10.9155406-4.8869369 10.9155406-10.9155405s-4.8871622-10.91554056-10.9155406-10.91554056zm-5.9684684 9.54166666c-.7873874 0-1.4259009-.6385135-1.4259009-1.4259009 0-.7876126.6385135-1.4259009 1.4259009-1.4259009s1.4259009.6382883 1.4259009 1.4259009c0 .7873874-.6385135 1.4259009-1.4259009 1.4259009zm9.6846846 0c-.7876126 0-1.4259009-.6385135-1.4259009-1.4259009 0-.7876126.6385136-1.4259009 1.4259009-1.4259009.7873874 0 1.425901.6382883 1.425901 1.4259009 0 .7873874-.6385136 1.4259009-1.425901 1.4259009z" fill="#ffd561"/><g fill="#283182"><path d="m24.4056306 49.8364865c-.3351351 0-.6259009-.2493243-.6693693-.5903153-.0297298-.2322072-.7040541-5.7191442 1.0484234-8.3259009.7421171-1.1038289 2.6441441-1.0481982 5.0511261-.9772523 2.8376126.0835586 6.0524775.1783784 6.7657658-1.7547297.0979729-.2653153.1452702-.577027.1952702-.9072072.1418919-.9351352.3177928-2.0961712 1.7495496-2.8939189.0054054-.2157658-.2022523-.7490991-.4529279-1.1443694-.1020271-.1612613-.1315316-.3587838-.0806307-.5427928.0513514-.1837838.1774775-.3382883.3481982-.4238739.4114865-.2078829.8682433-.5682432.9213964-.7272522.011937-.1520271-.2189189-.5130631-.4042792-.8031532-.3277027-.5135135-.6993244-1.0954955-.6806307-1.8015766.0168919-.6389639.6380631-1.0252252 1.4977478-1.5594594.3481982-.2164415.9594594-.5963964 1.1702702-.8355856-.438063-.5675676-.8427928-1.0621622-1.2349099-1.5414414-1.3475225-1.6463964-2.4114865-2.9470721-3.3556306-5.4376127-.2195946-.5792792.015991-1.2867117.2887387-2.1058558.229955-.6905406.4907658-1.4734234.3934685-1.9975225-.4466216-2.4040541-1.2547297-4.552928-2.4018018-6.38648652-.197973-.31621622-.102027-.73333333.2144144-.93108108.3162162-.19797297.7331081-.1018018.9310811.21441441 1.2376126 1.97792789 2.106982 4.28468469 2.5849099 6.85630629.1612613.8671171-.1581081 1.8254505-.4396396 2.6713964-.1364865.4096847-.3427928 1.0290541-.3036036 1.2114865.8619369 2.2727478 1.8148648 3.4373874 3.1337838 5.0490991.4259009.5207207.8664414 1.0587838 1.3529279 1.6934685.1990991.2596847.2772522.5734234.2207207.8837838-.1353604.7425675-.963964 1.2576576-1.8414414 1.8031531-.2786036.1731982-.6797298.4225225-.8497748.5743243.0490991.2704955.2567567.5957208.4583333.9117117.3112613.4876127.663964 1.0400901.6074324 1.6720721-.0549549.6126126-.5909909 1.1128379-1.0578828 1.4373874.2186937.4734234.4218468 1.1083333.281081 1.6475225-.0887387.3396397-.2963963.6054054-.6013513.7689189-.8923423.4788289-.9851351 1.0914415-1.1137387 1.9391892-.0578829.3826577-.1177928.7781532-.2635136 1.1727478-1.0495495 2.8443694-4.9443693 2.729054-8.0734234 2.6376126-1.504054-.0443694-3.5637387-.104955-3.8898648.3801802-1.2218469 1.8175675-1.0128379 5.9587838-.8295045 7.4011261.0472972.3702703-.2146397.7085586-.58491.7556306-.0286036.0040541-.0574324.0058559-.0858108.0058559z"/><path d="m7.78963964 48.9738739c-.09887387 0-.19954955-.0218469-.29459459-.0677928-.33558559-.1628379-.47567568-.5668919-.31306307-.9027027.04436937-.0918919 4.40720722-9.2628379.28963964-14.5040541-3.77004504-4.7993243-6.04301802-9.0547297-6.94864865-13.0099099-.70563063-3.0813063-.5813063-5.9657658.39099099-9.0786036 1.35022523-4.32207206 4.16306307-7.59166666 8.13490991-9.45472972 5.42500003-2.54459459 12.77117113-2.37162162 19.65135133.46261261 1.652928.68085586 4.0220721 2.04797298 5.2601352 3.66013514.2274774.29572072.1718468.72004504-.1243244.9472973-.2959459.2277027-.7198198.17184684-.9472973-.12432433-1.006081-1.30968468-3.0871621-2.56779279-4.7033783-3.23378378-6.5358109-2.69256757-13.4754505-2.87522523-18.56283788-.48851352-3.67094594 1.7222973-6.16711711 4.62702703-7.41914414 8.6342342-2.51914415 8.0650901 1.78648648 15.065991 6.33085585 20.8504505 1.93761257 2.4666667 2.52117117 6.0186937 1.68761257 10.2718468-.6173423 3.1486487-1.7754504 5.5560811-1.82432428 5.656982-.11666666.2407658-.35743243.3808559-.60788288.3808559z"/><path d="m17.2317568 27.8970721c-6.3914415 0-11.59121626-5.1997748-11.59121626-11.5912162 0-6.39121626 5.19977476-11.59099104 11.59121626-11.59099104 6.3912162 0 11.5909909 5.19977478 11.5909909 11.59099104 0 6.3914414-5.1997747 11.5912162-11.5909909 11.5912162zm0-21.83085588c-5.6461712 0-10.23986491 4.59346848-10.23986491 10.23963968 0 5.6461711 4.59369371 10.2398648 10.23986491 10.2398648 5.6461711 0 10.2396396-4.5936937 10.2396396-10.2398648 0-5.6461712-4.5932432-10.23963968-10.2396396-10.23963968z"/><path d="m17.2317568 23.0786036c-2.5031532 0-4.7972973-1.2662162-6.1362613-3.3871622-.1990991-.3155405-.104955-.7328828.2108108-.9322072.3153153-.1988738.7326577-.1049549.9322072.2108108 1.0898649 1.7265766 2.9567568 2.7572073 4.9934685 2.7572073s3.9033784-1.0306307 4.9932432-2.7572073c.1997748-.3153153.6168919-.4094594.9322072-.2108108.3155406.1993244.4096847.6164415.2108108.9322072-1.3394144 2.120946-3.6331081 3.3871622-6.1364864 3.3871622z"/><g transform="translate(10.135135 11.261261)"><path d="m11.938964 4.3463964c-1.159009 0-2.10157661-.9427928-2.10157661-2.10157658s.94279281-2.10135135 2.10157661-2.10135135c1.1587837 0 2.1015765.94279279 2.1015765 2.10135135 0 1.15900901-.9425675 2.10157658-2.1015765 2.10157658zm0-2.85157658c-.4137388 0-.7502253.33648649-.7502253.75 0 .41373874.3364865.75022523.7502253.75022523.4137387 0 .7502252-.33648649.7502252-.75022523 0-.41351351-.3364865-.75-.7502252-.75z"/><path d="m2.25427928 4.3463964c-1.15900901 0-2.10157658-.9427928-2.10157658-2.10157658s.9427928-2.10135135 2.10157658-2.10135135 2.10157658.94279279 2.10157658 2.10135135c0 1.15900901-.94256757 2.10157658-2.10157658 2.10157658zm0-2.85157658c-.41373874 0-.75022523.33648649-.75022523.75 0 .41373874.33648649.75022523.75022523.75022523s.75022522-.33648649.75022522-.75022523c0-.41351351-.33648648-.75-.75022522-.75z"/></g></g></g></svg>