<svg height="41" viewBox="0 0 50 41" width="50" xmlns="http://www.w3.org/2000/svg"><g fill="none"><path d="m45.2388889 6.29282407-7.4016204.44444445-.9141204-3.31365741-3.0692129.88333333 1.1398148 4.29606482-1.0189815.29166667-.6733796-1.73518519-1.5578704.11319445.8738426 12.03449071 13.4951389-.9798611z" fill="#c9e084"/><g fill="#283182"><path d="m47.0333333.10393519-4.9520833-.01018519h-.0013889c-.3828704 0-.69375.3099537-.6944444.69305556-.0006945.38333333.3094907.69513888.6930555.69583333l4.9518519.01018518c.7458333.00162037 1.3523148.6962963 1.3523148 1.54837963v32.2115741c0 .8409722-.5986111 1.5354166-1.3171296 1.5481481l-19.9951389-.1493055c-.3395834.0129629-.6516204-.1273148-.9027778-.3743056-.3006945-.2951389-.4729167-.7231481-.4729167-1.1738426v-1.7134259c.9476852.1252315 1.3414352.4564815 1.3414352.4564815.2736111.2694444.7134259.2666666.9831019-.0060185.2696759-.2726852.2668981-.7122686-.0057871-.9819445-.0814815-.080787-.7613426-.705787-2.31875-.8664352v-4.305324c.9476852.125 1.3414352.4564814 1.3425926.45625.2724537.2696759.7122685.2668981.9819445-.0057871.2696759-.2726852.2668981-.7122685-.0057871-.9819444-.0814815-.0807871-.7613426-.7057871-2.31875-.8664352v-4.3053241c.9476852.125 1.3414352.4564815 1.3425926.45625.2724537.2699074.7122685.2668982.9819445-.005787.2696759-.2726852.2668981-.7122685-.0057871-.9819445-.0814815-.080787-.7613426-.705787-2.31875-.8664352v-4.305324c.9476852.1252315 1.3414352.4564815 1.3414352.4564815.2736111.2694444.7134259.2666666.9831019-.0060186.2696759-.2726851.2668981-.7122685-.0057871-.9819444-.0814815-.080787-.7613426-.705787-2.31875-.8664352v-4.3060185c.9476852.125 1.3416667.45625 1.3416667.45625s.0009259 0 .0009259-.0002315c.2729167.2696759.7122685.2668982.9819445-.005787.2696759-.2729167.2668981-.7125-.0057871-.9819445-.0814815-.08078701-.7613426-.70555553-2.31875-.86620368v-4.30532407c.9476852.12523148 1.3414352.45648148 1.3425926.45625.2724537.26967592.7122685.26666666.9819445-.00578704.2696759-.27268518.2668981-.71226852-.0057871-.98194444-.0814815-.08078704-.7613426-.70578704-2.31875-.86643519v-.47893518c0-.4462963.1694445-.8712963.4652778-1.16620371.2469907-.24652778.5631944-.38217592.8900463-.38217592h.0025463l11.8743056.02685185h.0011574c.3831018 0 .6939814-.30995371.6949074-.69282408.0009259-.38356481-.3092593-.69513888-.6928241-.69606481l-11.8743056-.02685185c-.0020833 0-.0037037 0-.0037037 0-.6993055 0-1.3636574.27962963-1.8729166.78796296-.062963.06273148-.1217593.12939815-.1787037.19768519-.056713-.06828704-.1155093-.13495371-.1784723-.19768519-.5092592-.50833333-1.1733796-.78796296-1.8710648-.78796296-.0018518 0-.0039352 0-.005787 0l-19.97800927.04513889c-1.50972222.00347222-2.73819444 1.32106481-2.73819444 2.93726852v34.70370371c0 1.593287 1.21064814 2.9108796 2.71643518 2.937037l19.96041663-.149537c.7074074.0122685 1.3810186-.2618056 1.900463-.7722222.068287-.0673611.1324074-.1386574.19375-.2122686.0613426.0738426.1256944.1451389.194213.2122686.5083333.4993055 1.1652777.7726852 1.8384259.7726852.0150463 0 .0298611-.0002315.0444444-.000463l19.9953704.149537c1.4884259-.0261574 2.6990741-1.3439815 2.6990741-2.937037v-34.7039352c0-1.6162037-1.2284722-2.93402777-2.7381945-2.93726851zm-37.89976849 38.03032411h.00486112l13.76759257-.09375c.4967593.0108796.9752315-.125463 1.3967593-.3824074-.0152778.4275462-.1835648.8298611-.4699074 1.1113425-.2462963.2418982-.5583334.3743056-.8979167.3743056-.0071759 0-.0145833 0-.0222222-.0002315l-19.96064817.1495371c-.71967592-.0127315-1.30671296-.6777778-1.33217592-1.49375.39166666.2400463.84305555.3819444 1.32523148.3902777l3.38032407-.025c.38333334-.0030092.69212963-.3159722.68935185-.699537-.00300925-.381713-.31319444-.6893519-.69421296-.6893519-.00185185 0-.0037037 0-.00532407 0l-3.36296297.025c-.73587962-.0127314-1.33449074-.7071759-1.33449074-1.5481481v-32.2113426c0-.85231481.60671297-1.54699074 1.3525463-1.54837963l19.97800923-.04513888h.0025463c.3268519 0 .6428241.13564814.8900463.38217592.2956019.29490741.4652778.71990741.4652778 1.1662037v.46921297c-1.6398148.14050926-2.3532407.79375-2.4365741.87638889-.2729166.26967592-.2821759.71574074-.0127315.9886574.1375.13912037.3173612.20949074.4967593.20949074.1724537 0 .3446759-.06527777.4784722-.1974537.0048611-.00439815.4331019-.36875 1.4738426-.48217592v4.30833333c-1.6398148.14050926-2.3532407.79351852-2.4365741.87615738-.2729166.2694445-.2824074.7155093-.0127314.988426.1375.1393518.3173611.2097222.4967592.2097222.1724537 0 .3446759-.0652778.4784722-.1974537.0048612-.0043982.4328704-.3685185 1.4738426-.4819445v4.3081019c-1.6398148.1405092-2.3532407.79375-2.436574.8763889-.2729167.2696759-.282176.7157407-.0127315.9886574.1375.1391203.3173611.2094907.4967592.2094907.1724537 0 .344676-.0652778.4784723-.1972222.0048611-.0043982.4331018-.36875 1.4738426-.4821759v4.3083333c-1.6398149.1405093-2.3532408.79375-2.4365741.8763889-.2729167.2696759-.2821759.7157407-.0127315.9886574.1375.1391204.3173611.2094907.4967593.2094907.1724537 0 .3446759-.0652777.4784722-.1974537.0048611-.0043981.4331018-.36875 1.4738426-.4821759v4.3083333c-1.6398148.1405093-2.3532408.79375-2.4365741.8763889-.2729167.269676-.2821759.7157408-.0127315.9886574.1375.1391204.3173611.2094908.4967593.2094908.1724537 0 .3446759-.0652778.4784722-.1974537.0048611-.0043982.4331019-.36875 1.4738426-.4819445v4.3083334c-1.6398148.1405092-2.3532407.79375-2.4365741.8763889-.2729166.2696759-.2821759.7157407-.0127315.9886574.1375.1391203.3173611.2094907.4967593.2094907.1724537 0 .3446759-.0652778.4784722-.1974537.0048611-.0043982.4331019-.36875 1.4738426-.4819444v1.7261574c0 .4506944-.1722222.8787037-.4729167 1.1738426-.2516203.2472222-.5696759.380787-.9196759.3743055l-13.78425924.09375c-.38333333.0027778-.69212963.3155093-.68958333.6990741.00347222.3824074.31388888.6902778.69513888.6902778zm37.93171299 1.1590277-19.9953704-.149537c-.3252315.0074074-.6509259-.1268519-.9025463-.3740741-.2865741-.2817129-.4548611-.6844907-.4699074-1.1122685.4196759.2553241.89375.3898148 1.3796296.3833333l19.9951389.1493056c.4745371-.0083333.9201389-.1488426 1.3078704-.3865741-.0270833.8141204-.6131945 1.4770834-1.3148148 1.4898148z"/><path d="m44.3039352 5.53611111c-.1393519-.12037037-.3208333-.17847222-.5043982-.16736111l-7.0631944.51273148-.6685185-2.42083333c-.0495371-.17893519-.1682871-.33078704-.3305556-.4212963-.1625-.09050926-.3543981-.11226852-.5321759-.06087963l-2.6125.75717593c-.3622685.10509259-.574537.48009259-.4780093.84467592l.425 1.60555556-2.2349537.16226852c-.1837963.01342592-.3546296.09907407-.4752315.23842592-.1203703.13935186-.1805555.32083334-.1671296.50439815l.8736111 12.03449078c.0263889.3655092.33125.6442129.6918982.6442129.0166666 0 .0337963-.0006944.0509259-.0018518l13.4951389-.9796297c.1837963-.0134259.3546296-.099074.4752315-.2384259.1203703-.1393518.1805555-.3208333.1673611-.5043981l-.8736111-12.03449077c-.0136574-.18356482-.0993056-.35439815-.2388889-.47476852zm-9.3875-1.0275463.8689815 3.14583334-1.3203704.37777778-.8337963-3.15092593zm-3.0456019 13.82430559-.7731481-10.64930559 1.8034722-.13101851.4023148 1.5199074c.0476852.18032408.1662037.3337963.3282408.42615741.1055555.0599537.224074.09074074.3430555.09074074.0638889 0 .1284722-.00879629.1909722-.02685185l2.662963-.76203704c.3664352-.10462963.5798611-.48518518.4782407-.85254629l-.1935185-.70115741 6.094213-.44259259.7731481 10.64953703z"/><path d="m5.12453704 8.87685185 1.33773148-.19722222c.20740741-.03055556.41828704-.07175926.62361111-.11203704.27800926-.05462963.69143518-.13402778.84398148-.11481481l.09444445.06180555c.55162037.36319445.96712963.57268519 2.08148144.42569445.2238426-.02962963.4490741-.06319445.6715278-.09652778.6388889-.09560185 1.7081019-.25486111 1.9342593-.09976852.6018518.52662037 1.1833333.70532408 1.724074.70532408.6643519-.00023149 1.2666667-.26944445 1.7668982-.49328704.9708333-.43449074 1.562963-.65046296 2.4324074-.02893519.3118056.22361111.7458333.15138889.96875-.16064814.2233796-.31180556.1511574-.74560186-.1606481-.96875-1.5587963-1.11550926-2.8587963-.53449075-3.8074075-.10949075-.9275462.41481482-1.3650462.57407408-2.0087962.01087963-.66875-.58564814-1.7747686-.42013888-3.0543982-.22916666-.2150463.03217592-.4326389.06458333-.64861111.09305555-.68148148.09027778-.77800926.02685185-1.13587963-.20856481l-.14189815-.09236111c-.49652777-.31898148-1.14328703-.19143519-1.82800925-.05694445-.1837963.03611111-.37245371.07337963-.55810186.10069445l-1.33773148.19722222c-.37939815.05578704-.64166666.4087963-.58564815.78819444.05578704.37939815.40810186.64236111.78796297.58564815z"/><path d="m14.6326389 12.4555556c-.7851852 0-1.8039352.3780092-1.9175926.4210648-.3583333.1358796-.5384259.5363426-.4027778.8949074.1356482.3587963.5361111.5393518.8951389.4037037.24375-.0918982.9747685-.3310185 1.4252315-.3310185.4118055 0 .7166667.2238426.7166667.2238426.1284722.1023148.2814814.1520833.4335648.1520833.2037037 0 .4055555-.0893519.542824-.2606482.2395834-.299537.1909723-.736574-.1085648-.9761574-.0675926-.0537037-.6861111-.5277777-1.5844907-.5277777z"/><path d="m4.89675926 14.2087963c.03009259.0053241.51435185.0928241 1.20069444.0928241.34930556 0 .75069445-.0226852 1.1712963-.0902778.27060185-.0435185.54583333-.1016204.8125-.1581019.88148148-.1872685 1.71388889-.3631944 2.1659722.0087963.2960648.2439815.7340278.200926.9775463-.0949074.24375-.2960648.2011574-.7337963-.0949074-.9775463-.9689815-.7972222-2.22708332-.530787-3.33680554-.2949074-.26111112.0553241-.50763889.1076389-.74444445.1456019-.99328704.1597222-1.8787037.00625-1.90023148.0025463-.37800926-.0678241-.73842593.180324-.80810185.5567129-.06967593.3770834.17939815.7395834.55648148.8092593z"/><path d="m5.06828704 22.919213c.01875-.0013889 1.8875-.1231482 3.53449074-.2847223.52939815-.0518518.9875-.1509259 1.39166666-.2386574 1.00787036-.2185185 1.46759256-.318287 2.13379626.3284723.2909723.2826388.7539352.3881944 1.4469908.3881944.6388889 0 1.4731481-.0898148 2.5479166-.2141204.5199075-.0599537 1.0574075-.1219907 1.5224538-.1597222.9479166-.0761574 1.5377314.1349537 1.5377314.1349537.357176.1393519.7599537-.0384259.8990741-.3960648.1388889-.3574074-.0384259-.7597222-.3960648-.8988426-.087037-.0337963-.8875-.3270833-2.1532407-.224537-.4881945.0395833-1.0377315.1030092-1.569213.1645833-.9444445.1090278-2.5092593.2895833-2.9157408.1634259-1.1821759-1.1136574-2.2828703-.8743055-3.34791662-.64375-.38518518.0835648-.78356481.1699074-1.23287037.2141204-1.62361111.1590278-3.47013889.2793981-3.48865741.2805556-.38263889.0247685-.67268518.355324-.64814814.7379629.02430555.3828704.35162037.6724537.73773148.6481482z"/><path d="m15.9199074 26.1831019c-1.1793981.2800925-1.4217593.155787-1.7576389-.0159723-.3354166-.1722222-.7951389-.4078703-1.7356481-.4127315-.6034723.0081019-1.2668982.132176-1.9090278.262963-.8363426.1706019-1.87731482.3833333-2.2076389.0886574-1.24791666-1.1129629-3.38287037.012963-3.62222222.1446759-.33518518.1851852-.45694444.60625-.27268518.9418982.18472222.3358796.60694444.4581018.94236111.275.51689815-.2826389 1.64305555-.6685185 2.02847222-.3247685.84976852.7574074 2.15115741.4918981 3.40902777.2356481.5731482-.1168981 1.1550926-.2395833 1.6247685-.2351852.6092593.0032408.8409722.1219908 1.1090278.2594908.3699074.1898148.71875.3349537 1.2886574.3349537.3636574 0 .8173611-.0592593 1.4240741-.2037037.3731481-.0886574.6037037-.4631945.5148148-.8361111-.0884259-.3736111-.4627315-.6025463-.8363426-.5148148z"/><path d="m11.4733796 31.4717593c.4976852-.1199074.9689815-.2328704 1.4657408-.2171297 1.3125.0421297 2.2060185.3430556 2.8585648.5631945.3504629.1180555.7069444.2379629 1.0347222.2379629.2865741 0 .5511574-.0916666.7701389-.3571759.3946759-.4784722 1.4553241.1416667 1.4634259.1467593.3252315.2032407.7534722.1046296.9571759-.2201389.2034723-.3252315.1048612-.7537037-.2201388-.9571759-.7300926-.456713-2.1636574-.9402778-3.1141204-.0240741-.1217593-.0328704-.2974537-.0918982-.4476852-.1425926-.6928241-.2335648-1.7402778-.5861111-3.2576389-.6347222-.6810185-.0243056-1.2696759.1185185-1.8349537.2546296-.6560185.1578704-1.22199073.294213-1.87129629.1569444-2.05069444-.4344907-4.36574074.2856482-4.46342592.3164352-.36550926.1155093-.56782408.5053241-.4525463.8708334.11527778.3657407.50555556.56875.87060185.4537037.02037037-.00625 2.06944445-.6393519 3.75787037-.2824074.95740741.2030092 1.76805559.0071759 2.48356479-.1650463z"/><path d="m45.5571759 22.2347222c-.0641203-.0092592-1.5861111-.2259259-2.8377315-.0837963-.4400463.0497685-.7203703.2219908-.9252314.3479167-.2039352.1252315-.294676.1821759-.600926.1671296-.5537037-.0282407-1.0872685-.1844907-1.6525463-.3497685-1.1898148-.3479167-2.5388888-.7421296-4.3907407-.044213-.3206019.1208334-.9337963 0-1.5273148-.1175926-.2712963-.0534722-.5518519-.1092592-.8432871-.1523148-1.0018518-.1474537-1.9152777.2405093-2.0159722.2854167-.3504629.1560185-.5078703.5666667-.3518518.9168981.1560185.3502315.5662037.5078704.9168981.3518519.00625-.0025463.6414352-.2706019 1.2472222-.1800926.2585649.0381945.5224537.0905093.7775463.1407407.8199074.1622686 1.5951389.3155093 2.2865741.0546297 1.4175926-.5349537 2.3870371-.2506945 3.5108796.0775463.6168982.1805555 1.2550926.3671296 1.9712963.4037037.0530093.0027778.1037037.0041666.1527778.0041666.6363426 0 .9861111-.2150463 1.2462963-.3747685.1578704-.0969907.2266204-.137037.3543982-.1513889 1.0715277-.1203703 2.46875.0766204 2.4826389.0787037.3796296.0520834.7317129-.2085648.7863425-.5881944.0550926-.3796296-.2081018-.7319444-.5872685-.7865741z"/><path d="m41.5104167 27.6219907c.3456018.1351852.7358796.287963 1.2016203.287963.0162037 0 .0328704-.0002315.0493056-.0006944 1.5104167-.0349537 2.6974537-.1215278 2.7472222-.1252315.3824074-.0282408.6694445-.3613426.6414352-.74375-.0282407-.3824074-.3615741-.6685185-.74375-.6414352-.0118056.0009259-1.2013889.0877315-2.6770833.1219907-.2078704-.0011574-.4418982-.0863426-.7125-.1923611-.6423611-.2513889-1.6122686-.63125-2.8189815.3180556-.3013889.237037-.3532408.6736111-.1162037.9752315.2368055.3011574.6736111.3532407.9752315.1162037.5814814-.457176.8729166-.3435186 1.4537037-.1159723z"/><path d="m30.9425926 27.7780093c.0439815.0064814.8835648.13125 1.8337963.13125.2381944 0 .4840278-.0076389.725463-.0273149.3277777-.0266203.617824-.0962963.8738425-.1578703.525463-.1256945.7953704-.1787037 1.1775463-.0025463.3481482.1611111.7608797.0090278.9212963-.3395834.1606482-.3481481.0087963-.7608796-.3395833-.9212963-.8365741-.386574-1.5282407-.2201388-2.0833333-.087037-.2270834.0543982-.4416667.105787-.6625.1238426-1.0400463.0840278-2.2275463-.0909722-2.2393519-.0930556-.380787-.05625-.7331018.2043982-.7900463.5833334-.0571759.3793981.2037037.7328704.5828704.7902778z"/><path d="m30.4627315 31.8636574c.20625.3219907.6351852.4157407.9585648.2104167.3803241-.2418982 1.1034722-.5178241 1.4502315-.3400463 1.19375.6118055 2.0849537.4467592 2.8004629.3145833.2851852-.0530092.5275463-.0988426.7618056-.087963.6460648.0289352.931713.125926 1.2078704.2199075.3002314.1020833.5613426.1763888.9212963.1763888.3099537 0 .693287-.0550925 1.2377314-.1951388.3712963-.0953704.5951389-.4740741.4995371-.8453704-.0953704-.3712963-.4722222-.5946759-.8453704-.4995371-.8599537.2212963-1.0291667.1636575-1.3657407.0488426-.3162037-.1074074-.7490741-.2546296-1.5930556-.2925926-.3898148-.0185185-.7381944.0472223-1.0761574.1097223-.6131944.1129629-1.1416667.2111111-1.9148148-.1849537-1.193287-.6118056-2.6706019.3020833-2.8351852.4081018-.3217593.2078704-.4136574.6354167-.2071759.9576389z"/></g></g></svg>