<svg height="47" viewBox="0 0 50 47" width="50" xmlns="http://www.w3.org/2000/svg"><g fill="none"><path d="m49.8273109 12.875c-.0768907-.987605-1.8365546-.3659664-4.2214285-1.1002101-.794958-.2447479-2.0268908-2.03991595-2.8256303-2.08487393-5.137605-.46407563-6.0088235 1.49348743-6.4680672 1.78067223-.052311.0325631 2.1518907 1.5371849 2.3590336 2.1968488.6779412 2.1607143.390126 6.5993697.2308823 6.7363445-.4170168.3592437-2.6659663 1.5327731-3.772479.384874-.9346638-.9697479-.9415966-5.3151261-.9021008-4.8840337l-.044958.0262606s-3.2962185 4.5693277-5.1037815 5.0947479c-3.0170168.8771008-13.7796218-1.742437-15.5953781.5968487-3.4363446.1321428-10.30021012-5.0855042-10.30021012-5.0855042l-.54222689.7779412s1.16722689 7.3733193 3.36911764 8.6228991c2.1789916 1.2363446 6.78004207.0170168 6.87605047-.0086134-.7155463 2.507563.5611344 5.280042 1.7271008 7.5340336-1.4840336-.6218487-2.6733193-3.0691177-2.8571429-2.9018908-1.3785714 1.2529412-2.12794114 1.5892858-2.40924366 2.232353-.59012605 1.3495798 1.36365546 3.7367647 2.37268906 3.9134454 1.0092437.1766806 2.5817227.5212184 4.1542017-.2054622.0155462 1.3556722.0016807 2.9027311.1611344 3.4163865.0827732.2665967.5783614.8905462 1.2443278 1.6304622 1.4922269-.8691176 4.2911765-1.7785714 3.512605-2.8884454-.4052521-.5777311 1.4363446-2.4579832 1.4363446-2.4579832s5.5674369.9571429 10.5178571.3806723l.0210084.2697479s-.2384454 3.3844538-.0533613 4.8058824c.185084 1.4212184 1.6239495 3.7035714 2.0693277 3.7035714h4.0397059c.6380252 0 .8220588-1.2626051-.2411765-2.3857143-.9098739-.9609244-1.605042-.5155462-1.7163865-1.6819328-.1388656-1.452521 1.3331932-3.842647 1.7521008-6.1756302l-.0483193-.317437c.6714285-.0367647.7420168.2394958 1.2464285.1970588.6915967-.0579832 2.719958-2.4065126 3.2840336-3.7373949-1.5380252-1.3027311-3.2533613-1.5455883-3.2533613-1.5455883s.434874-2.5365546.7955882-5.0268907c.1918068-1.3237395 1.092437-3.5329832 2.259874-4.4212185 1.4558823-1.107563 3.9556723.375 5.3859244-.7186975 1.2535714-.9586134 1.7697479-3.7203781 1.5399159-6.6735294z" fill="#c9e084"/><g fill="#283182"><path d="m37.3733193 29.3760504c-.9808823-.2861344-1.7556722-.5027311-1.8317227-.5239496-.3344537-.0932773-.6829832.1021009-.7764705.4376051-.0934874.3352941.1023109.6829832.437605.7764706.044958.012605 4.5096639 1.2609243 5.7661765 1.7777311.2915966.1199579.6806722.397689 1.0960084.7821428.1212185.1121849.275.1678572.4279411.1678572.1695379 0 .3384454-.0678572.4626051-.2021009.2365546-.2554622.2212185-.6539916-.0342437-.8905462-.3697479-.342437-.9254202-.7978992-1.4728992-1.0228992-.5737395-.2361344-1.7233193-.60021-2.857563-.9418067.0783613-.4613445.462395-2.7403361.7836134-4.957563.1907564-1.3157563 1.0661765-3.2863445 2.0178572-4.010084.5920168-.4504202 1.4535714-.5481093 2.3657563-.6518908.2203781-.0252101.4407563-.0502101.6579832-.0802521.3447479-.0476891.5857143-.3655462.5382353-.7105042-.0476891-.3447479-.3655462-.5863445-.7105042-.5382353-.207353.0285714-.417437.0523109-.6279412.0762605-1.0413866.1180672-2.1184874.2407563-2.9865546.9010504-1.3815126 1.0510505-2.309874 3.5050421-2.5021009 4.8325631-.2930672 2.0222689-.6388655 4.0968487-.7537815 4.7781512z"/><path d="m45.2932773 35.4565126c-.0256302-.7067227-.5382353-1.562605-.9634454-2.1556723-.2029411-.2829832-.5966386-.347689-.8794117-.1449579-.2829832.2029411-.3476891.5966386-.144958.8796218.5247899.7317227.7203781 1.247479.7283613 1.4670168.0079832.2172269.0226891.4338235.0376051.6493698.0836134 1.2205882.1441176 2.1023109-.9558824 2.8886554-.1731092.1239496-.6037815.3955883-.860084.2342437-.3418067-.2140756-.5968488-1.1044117-.3491597-2.5533613.0886555-.5193278-.2420168-1.0901261-1.0712185-1.8512605-.6508403-.5968488-1.5193277-.8985294-2.3848739-.8247899-2.2044118.1844537-3.9115546.2310924-4.6836135.127731-.7281512-.0974789-1.9607142-2.3281512-2.655042-4.3506302-.1130252-.3289916-.4712185-.5054622-.8008403-.3913866-.3289916.1128152-.5044118.4710084-.3915967.8004202.0165967.0481092.4115547 1.1941177 1.0155463 2.3852941.8966386 1.7678572 1.7680672 2.6857143 2.6647058 2.8056723.5850841.0783613 1.4668068.0785714 2.4100841.0418067-.2002101.8466387-.522479 1.7006303-.8371849 2.5310925-.4911765 1.2957983-.9153361 2.4149159-.8252101 3.3586134.0997899 1.0422269.5745799 1.3647059 1.0340336 1.6764706.2289916.1554622.4657563.3161765.7455883.6117647.4787815.5056723.6132353.8970588.6390756 1.0890756h-3.7357143c-.4054622-.3594538-1.4361344-2.0371849-1.5817227-3.1548319-.147689-1.1340336-.0067227-3.6691177.0420168-4.4478992.0953782-.0147059.1913866-.0258403.2863446-.0422269.3430672-.0594537.5728991-.3855042.5134454-.7285714-.0592437-.3430672-.3859244-.572479-.7285715-.5134454-3.9084033.6766807-8.3880252-.3584033-10.1128151-.8283613.3764706-.7361345.7197479-1.557563.9436975-2.4819328.0819327-.3382353-.1260504-.6789916-.4642857-.7609244-.3392858-.0827731-.6789916.1262605-.7609244.4642858-.3859244 1.5934874-1.2060924 2.9088235-1.8651261 3.9657563-.6563025 1.0521008-1.1302521 1.8123949-1.0243697 2.5466386.2239496 1.5516807 2.5630252 4.1905462 3.7039916 4.1903362.0073529 0 .0147059 0 .0220588-.0002101.5273109-.0176471 1.0033614.1989495 1.4008403.6397058.3476891.3855043.5508404.8552521.6355043 1.1737395-2.7957984.1216387-3.8415967.1577732-4.1966387.1638656-.8798319-.477521-4.8105042-4.4697479-5.0972689-5.1865546-.1088235-.3497899-.1189076-1.6157563-.1271009-2.6331933-.0123949-1.5266807-.0281512-2.4861345-.1894958-2.9581933-.0905462-.2657563-.3071428-.5228991-.6659663-.9493697-1.1457984-1.3617647-3.5302521-4.1960084-1.7558824-8.2495799.1397059-.3189075-.0056723-.6905462-.3245798-.830042-.3195378-.1403361-.6905462.0058824-.830042.3245798-.1447479.3306723-.2638656.6537816-.3634454.9705883-1.45315128.3418067-4.569958.8285714-6.05903363-.0163866-1.41029412-.8004201-2.62394958-5.4380252-3.05777311-8.1733193-.05462185-.3434874-.37857143-.5787815-.72121849-.5237395-.34369748.0546219-.57815126.3773109-.52373949.7210084.12436974.7852941 1.28382353 7.712395 3.68067227 9.0726891.83655462.4747899 1.95987394.6310924 3.07647058.6310924 1.24285715 0 2.47436975-.1934874 3.29684877-.357563-.1445378 1.0378151-.0665967 1.9878151.1430672 2.8415966-.41848739 1.0147059-1.91197479 1.3329832-3.12478992 1.5892858-.99621848.2107142-1.71617647.3628151-1.96911764.9413865-.35966387.822479-.27626051 1.9361345-.18004202 3.2256303.08970588 1.2008403.19138655 2.5619747-.02121849 3.9930672-.1105042.7445378-.41764706 1.1266807-.77373949 1.5693277-.51764706.6436975-1.10441177 1.3733193-.75231093 2.9859244.06218488.2846639.30042017.7934874 1.19810925 1.0054622.24222689.0573529.53046218.0890756.84537815.0890756 1.14957983 0 2.65483193-.4231092 3.58319327-1.5737395 1.12878152-1.3991597 1.19243702-4.0119748 1.23046222-5.5731092.0058823-.2401261.0121848-.5012605.0228991-.6869748.2044118.0042017.5287815.0514706.7834034.0886554.6228992.0907563 1.4121849.2044118 2.1930672.0808824.0128151 1.4044118.0367647 2.3021008.1819328 2.7691176.2170168.6987395 1.8726891 2.4317227 2.8403361 3.402521 2.662395 2.6716387 3.1184874 2.6716387 3.3636555 2.6716387.3703781 0 1.9508403-.0609244 4.6978991-.1813025l.144958-.0063025c.2939076-.0128152.7840336-.239916.7556723-1.0102942-.0430672-1.1689075-1.2081933-3.3021008-3.2867647-3.3021008-.0186975 0-.037395 0-.0560924.0004202-.512395-.1556723-2.312395-1.9686975-2.4768908-3.1092437-.0401261-.2781513.4308824-1.0334034.8462185-1.6997899.1418067-.2275211.2913865-.4695379.4420168-.7201681 1.2052521.3483193 4.4489496 1.1808823 7.9184874 1.1808823.492437 0 .9894958-.0174369 1.4861344-.055042-.0588235.9939076-.1703781 3.3058824-.0197479 4.4634454.1697479 1.3016807 1.6508404 4.2523109 2.6943278 4.2523109h4.0397059c.4468487 0 .8180672-.242647.9928571-.6491596.2983193-.6930673-.039916-1.6764706-.8829832-2.5670168-.3739496-.394958-.7086134-.622269-.9527311-.7880253-.3764706-.2554621-.4441176-.3016806-.4873949-.7537815-.0621849-.6514706.3319327-1.6911764.7489495-2.7920168.3552521-.9367647.7527311-1.992437.9628152-3.047479.4302521-.0283613.8516806-.0607143 1.2420168-.0934874.522689-.0428571 1.0296218.1327731 1.427521.4976891.5.4586135.6367647.6995798.6703781.7733193-.2962185 1.8111345.0506303 3.2178572.9329832 3.7705883.1865546.1168067.4768908.2436975.8577731.2436975.3817227 0 .8544118-.1275211 1.404832-.5210084 1.672479-1.1957984 1.570168-2.6857143 1.480042-4.0002101-.0144958-.2012605-.0285714-.4044118-.0359244-.6084034zm-33.9443277.5512605c-.8390757-.122479-1.5634454-.2277311-2.00252103.2934874-.21491596.2552521-.22289916.5741597-.24579832 1.5214286-.03193277 1.3092437-.09159664 3.7464285-.95147059 4.8123949-.61155462.7581933-1.70084033 1.0676471-2.44768907 1.102311-.54978992.0264705-.87836135-.0846639-.97752101-.1531513-.20273109-.982563.06911765-1.3205882.51428571-1.8743698.39096639-.4861344.87752101-1.0911764 1.0382353-2.1741596.23319328-1.569958.1210084-3.0680672.03130252-4.2720588-.08004202-1.0701681-.14957983-2.0012605.04747899-2.55.18697479-.0957984.71302521-.2069328 1.10546219-.289916 1.03634453-.2191177 2.45672268-.5218487 3.36533611-1.3802521.6014706 1.3279412 1.4430672 2.3285714 1.9728992 2.9581933.1743697.2071428.390126.4638655.4420168.5584033.0644958.2119748.0915966.8287815.1046218 1.4926471-.6254201.1512605-1.3460084.05-1.9966386-.044958z"/><path d="m22.0018908 31.0157563c.0048319.0002101.0096638.0002101.0142857.0002101.3415966 0 .6222689-.2731093.6298319-.6161765.0090336-.4048319-.010084-.8163865-.0569328-1.2231092-.0399159-.3457983-.3567227-.5941177-.6983193-.5539916-.3457983.0399159-.5936975.3527311-.5539916.6983193.0403361.3497899.0571429.7033613.0493698 1.0504202-.0079832.3481092.267647.6365546.6157563.6443277z"/><path d="m48.564916 12.8260504c-.0861345-1.1073529-1.2144958-1.1361344-2.2100841-1.1615546-.752521-.0191176-1.6888655-.0430672-2.6852941-.3497899-.2260504-.0695378-.6838235-.4926471-1.0180672-.8014706-.6443277-.59558824-1.2531513-1.1579832-1.9134454-1.19537816-2.7180672-.15336134-3.9161765-.01281512-5.1894958 1.09117646-1.7531512.1231093-3.6628151 2.4193277-3.8722689 3.3554622-.0457983.205042-.0466387.9621849.0193277 1.9140756-.5109243.6997899-1.197689 1.5655462-1.9096638 2.3678572-8.7506303.1336134-16.0943278-2.7430673-21.81470591-8.55189078-4.35231093-4.41932774-6.08802521-8.98046219-6.11197479-9.04432774-.12079832-.3262605-.48361345-.49243697-.80987395-.37163865-.32647059.1210084-.49285714.48361344-.37184874.80987395.07226891.19516807 1.82415966 4.83193277 6.35693277 9.45084032 3.97415962 4.0495798 10.88802522 8.7768908 21.54726892 8.9651261-.6042017.5731092-1.1615546.9970588-1.5697479 1.1157563-1.1065126.3218487-3.4321429.0995798-5.6817227-.1157563-3.7434874-.3577731-7.2905462-.6968488-8.7516807.6857143-2.7693277-.1468488-8.7890756-4.1084034-10.93928569-5.6718488-.28214285-.2052521-.67605042-.142437-.8802521.1388656-.20483193.2815126-.14264706.6756302.13886555.8804621.33592437.2443278 8.17794118 5.9170168 11.84957984 5.9170168.0436975 0 .0873949-.0008403.1298319-.002521.1861345-.0071428.3594538-.0962184.4737395-.2432773.867437-1.1174369 4.7443278-.7472689 7.8594538-.4495798 2.4758403.2367647 4.8147059.460084 6.1535714.0714286.7789916-.2264706 1.7428572-1.0397059 2.6436975-1.9670168 1.1430672 2.540126 3.7592437 4.9336134 6.4126051 5.7682773.0630252.019958.1266806.0294117.1892857.0294117.2678571 0 .5163865-.1720588.6008403-.4413865.1046219-.3321429-.080042-.6859244-.4119748-.7903362-2.1789916-.6857142-4.9247899-2.9535714-5.8470588-5.5981092.3457983-.3989496.6640756-.787395.9371849-1.1313025.2271008 1.5632353.6296218 3.0960084 1.2823529 3.4584033.5132353.2850841 1.5642857.517437 2.5890756.517437.8344538 0 1.6516807-.1542017 2.1468488-.5598739.3882353-.3180673.7260504-1.0262605.5714285-4.029832-.080042-1.5537815-.2560924-3.0006302-.2636554-3.0615546-.042437-.3457983-.3590336-.5915966-.7023109-.5487395-.3455883.0422269-.5913866.3567227-.5487395.7023109.3027311 2.4695379.4182773 5.4344538.1159663 5.9846639-.5628151.4004202-2.530042.2903361-3.2657563-.089916-.1193277-.1489495-.4474789-.8987395-.7161764-2.857563-.2132353-1.5527311-.2378152-2.7628151-.1911765-2.9762605.1287815-.5752101 1.7634454-2.3768907 2.7783613-2.3768907.0203782 0 .0403362.0006302.0600841.0023109.0039916.0002101.0077731-.0006303.0115546-.0004202.0329832.0018908.0657563-.0002101.0985294-.0035714.0065126-.0006303.0134454-.0004202.019958-.0012605.1113445-.014916.2184874-.0607143.3109244-.1357143.0067227-.0054622.0138655-.009874.020168-.0155462.0050421-.0044118.0107143-.007353.0155463-.0117647.9296218-.8689076 1.5863445-1.0810925 4.4449579-.9205883.2182773.0207984.8109244.5682773 1.1294118.862395.5155462.4766807 1.002521.9266807 1.502521 1.0806723 1.1619748.3577731 2.2382353.3852941 3.0241597.4052521.3436975.0088235.7991596.0203781.9911764.0739495.2153362 2.9088236-.2508403 5.1707984-1.2220588 5.9132353-.2764706.2113446-.3292017.6069328-.1178571.8834034.1239496.1621849.3113445.247479.5010504.247479.1336134 0 .2680672-.0422269.3823529-.1296219 1.9243698-1.4707983 1.8350841-5.4457983 1.7075631-7.0865546z"/><path d="m40.2352941 13.5779412.1445378.1121849c.1151261.0892857.2510505.132563.3863446.132563.1880252 0 .3737395-.0836135.4981092-.2434874.2136555-.275.1638656-.6707983-.1109244-.8844538l-.1445378-.1121849c-.2754201-.2134454-.6707983-.1638655-.8844538.1109244-.2136554.2747899-.1640756.6707983.1109244.8844538z"/></g></g></svg>