<svg height="93" viewBox="0 0 160 93" width="160" xmlns="http://www.w3.org/2000/svg"><g fill="none" fill-rule="evenodd"><path d="m11.5374834 0h136.9250336c4.011834 0 5.466622.41771525 6.933289 1.20209717 1.466666.78438191 2.617715 1.9354305 3.402097 3.40209716.784382 1.46666667 1.202097 2.92145474 1.202097 6.93328907v69.9250332c0 4.0118343-.417715 5.4666224-1.202097 6.9332891-.784382 1.4666666-1.935431 2.6177152-3.402097 3.4020971-1.466667.7843819-2.921455 1.2020972-6.933289 1.2020972h-136.9250336c-4.01183433 0-5.4666224-.4177153-6.93328907-1.2020972-1.46666666-.7843819-2.61771525-1.9354305-3.40209716-3.4020971-.78438192-1.4666667-1.20209717-2.9214548-1.20209717-6.9332891v-69.9250332c0-4.01183433.41771525-5.4666224 1.20209717-6.93328907.78438191-1.46666666 1.9354305-2.61771525 3.40209716-3.40209716 1.46666667-.78438192 2.92145474-1.20209717 6.93328907-1.20209717z" fill="#fff"/><g fill-rule="nonzero" transform="translate(56 14)"><path d="m48.3171591 38.8419318c-4.6120455-4.6120454-13.4609091-7.5532954-23.3202273-7.8014773l-1.1847727-14.21875c-.1654546-1.9780681-1.8480682-3.52625-3.8320455-3.52625-2.0519318 0-3.7389772 1.6043182-3.8409091 3.6532955l-1.2527272 25.0368182-.9306818-.4653409c-3.2367046-1.6176137-5.61806823-2.3710228-7.49272732-2.3710228-2.19818182 0-3.82318182 1.0193182-4.83068182 3.032841l-.47568181.9528409 18.04784095 18.0448863v3.8202273h26.590909v-5.5707955c1.456591-3.10375 2.9545455-8.9788636 2.9545455-16.5882954v-3.5661364z" stroke="#212122" stroke-linejoin="round" stroke-width="2"/><path d="m20.4336364.63227273c-.2732955-.39443182-.7356819-.63227273-1.2290909-.63227273-.4934091 0-.9557955.23784091-1.229091.63227273l-4.68 6.75409091h11.8181819zm-13.04727276 9.70863637-6.75409091 4.68c-.39443182.2732954-.63227273.7356818-.63227273 1.2290909s.23784091.9557955.63227273 1.2290909l6.75409091 4.68zm31.02272726 5.9090909c0-.4934091-.2378409-.9557955-.6322727-1.2290909l-6.7540909-4.68v11.8181818l6.7540909-4.68c.3944318-.2732954.6322727-.7356818.6322727-1.2290909z" fill="#000"/></g></g></svg>