<svg height="93" viewBox="0 0 160 93" width="160" xmlns="http://www.w3.org/2000/svg"><g fill="none" fill-rule="evenodd"><path d="m11.5374834 0h136.9250336c4.011834 0 5.466622.41771525 6.933289 1.20209717 1.466666.78438191 2.617715 1.9354305 3.402097 3.40209716.784382 1.46666667 1.202097 2.92145474 1.202097 6.93328907v69.9250332c0 4.0118343-.417715 5.4666224-1.202097 6.9332891-.784382 1.4666666-1.935431 2.6177152-3.402097 3.4020971-1.466667.7843819-2.921455 1.2020972-6.933289 1.2020972h-136.9250336c-4.01183433 0-5.4666224-.4177153-6.93328907-1.2020972-1.46666666-.7843819-2.61771525-1.9354305-3.40209716-3.4020971-.78438192-1.4666667-1.20209717-2.9214548-1.20209717-6.9332891v-69.9250332c0-4.01183433.41771525-5.4666224 1.20209717-6.93328907.78438191-1.46666666 1.9354305-2.61771525 3.40209716-3.40209716 1.46666667-.78438192 2.92145474-1.20209717 6.93328907-1.20209717z" fill="#fff"/><path d="m59.25 38.9216308c-.4141846 0-.75.3354492-.75.75v17.7678223l-22.3447266-22.3447265c-.2929688-.2929688-.7675781-.2929688-1.0605469 0-.2929687.2929687-.2929687.7675781 0 1.0605469l22.3447266 22.3447265h-17.7678223c-.4141845 0-.75.3354492-.75.75s.3358155.75.75.75h19.5783692c.097641 0 .19487-.0199585.2865142-.0578613.1834717-.0759888.3296357-.222107.4056244-.4055786.0379029-.0916443.0578614-.1889649.0578614-.2865601v-19.5783692c0-.4145508-.3358154-.75-.75-.75zm.2864228-38.863861c-.0915986-.03790283-.1888275-.0577698-.2864228-.0577698h-19.5783691c-.4141846 0-.75.3354492-.75.75s.3358154.75.75.75h17.7678222l-22.3447265 22.3447266c-.2929687.2929687-.2929687.7675781 0 1.0605469.1464843.1464843.3383789.2197265.5302734.2197265.1918946 0 .3837891-.0732422.5302734-.2197266l22.3447266-22.34472652v17.76782222c0 .4145508.3358154.75.75.75s.75-.3354492.75-.75v-19.5783691c0-.097641-.0199127-.19491577-.0578155-.28656007-.0760346-.18356325-.2221986-.32968141-.4057617-.40567013zm-56.97587592 1.4422302h17.76782222c.4141846 0 .75-.3354492.75-.75s-.3358154-.75-.75-.75h-19.5783691c-.09759525 0-.1948242.01986697-.28642275.0577698-.18356325.0759888-.32972715.22210695-.4057617.4056702-.03790282.09164423-.05781555.188919-.05781555.28656v19.5783691c0 .4145508.33581543.75.75.75s.75-.3354492.75-.75v-17.76782222l22.3447266 22.34472662c.1464843.1464843.3383789.2197265.5302734.2197265s.3837891-.0732422.5302734-.2197266c.2929687-.2929687.2929687-.7675781 0-1.0605469zm21.28417972 33.5947266-22.3447266 22.3447265v-17.7678223c0-.4145507-.33581543-.75-.75-.75s-.75.3354493-.75.75v19.5783692c0 .0975952.01995848.1949158.0578613.2865601.0759888.1834716.2221527.3295898.40562438.4055786.0916443.0379028.18887332.0578613.28651432.0578613h19.5783691c.4141846 0 .75-.3354492.75-.75s-.3358154-.75-.75-.75h-17.76782222l22.34472662-22.3447266c.2929687-.2929687.2929687-.7675781 0-1.0605469-.2929688-.2929687-.7675782-.2929686-1.0605469.0000001z" fill="#000" fill-rule="nonzero" transform="translate(50 17)"/></g></svg>