<svg height="93" viewBox="0 0 160 93" width="160" xmlns="http://www.w3.org/2000/svg"><g fill="none" fill-rule="evenodd"><path d="m11.5374834 0h136.9250336c4.011834 0 5.466622.41771525 6.933289 1.20209717 1.466666.78438191 2.617715 1.9354305 3.402097 3.40209716.784382 1.46666667 1.202097 2.92145474 1.202097 6.93328907v69.9250332c0 4.0118343-.417715 5.4666224-1.202097 6.9332891-.784382 1.4666666-1.935431 2.6177152-3.402097 3.4020971-1.466667.7843819-2.921455 1.2020972-6.933289 1.2020972h-136.9250336c-4.01183433 0-5.4666224-.4177153-6.93328907-1.2020972-1.46666666-.7843819-2.61771525-1.9354305-3.40209716-3.4020971-.78438192-1.4666667-1.20209717-2.9214548-1.20209717-6.9332891v-69.9250332c0-4.01183433.41771525-5.4666224 1.20209717-6.93328907.78438191-1.46666666 1.9354305-2.61771525 3.40209716-3.40209716 1.46666667-.78438192 2.92145474-1.20209717 6.93328907-1.20209717z" fill="#fff"/><g fill="#000" fill-rule="nonzero" transform="translate(50 17)"><path d="m30.6329114 37.2151899c-10.2602532 0-18.6075949-8.3473418-18.6075949-18.607595 0-10.26025313 8.3473417-18.6075949 18.6075949-18.6075949s18.6075949 8.34734177 18.6075949 18.6075949c0 10.2602532-8.3473417 18.607595-18.6075949 18.607595zm0-35.443038c-9.283038 0-16.835443 7.55240506-16.835443 16.835443 0 9.283038 7.552405 16.8354431 16.835443 16.8354431 9.2831645 0 16.835443-7.5524051 16.835443-16.8354431 0-9.28303794-7.5522785-16.835443-16.835443-16.835443z"/><path d="m18.6075949 60c-10.26025313 0-18.6075949-8.3473418-18.6075949-18.6075949 0-10.2602532 8.34734177-18.607595 18.6075949-18.607595 10.2602532 0 18.607595 8.3473418 18.607595 18.607595 0 10.2602531-8.3473418 18.6075949-18.607595 18.6075949zm0-35.443038c-9.28303794 0-16.835443 7.5522785-16.835443 16.8354431 0 9.2831645 7.55240506 16.835443 16.835443 16.835443 9.283038 0 16.8354431-7.5522785 16.8354431-16.835443 0-9.2831646-7.5524051-16.8354431-16.8354431-16.8354431z"/><path d="m41.3924051 60c-10.2602532 0-18.607595-8.3473418-18.607595-18.6075949 0-10.2602532 8.3473418-18.607595 18.607595-18.607595 10.2602531 0 18.6075949 8.3473418 18.6075949 18.607595 0 10.2602531-8.3473418 18.6075949-18.6075949 18.6075949zm0-35.443038c-9.2831646 0-16.8354431 7.5522785-16.8354431 16.8354431 0 9.2831645 7.5522785 16.835443 16.8354431 16.835443 9.2831645 0 16.835443-7.5522785 16.835443-16.835443 0-9.2831646-7.5522785-16.8354431-16.835443-16.8354431z"/><path d="m59.1139241 60h-58.22784815c-.48936709 0-.88607595-.3967089-.88607595-.8860759 0-.4893671.39670886-.886076.88607595-.886076h58.22784815c.489367 0 .8860759.3967089.8860759.886076 0 .489367-.3967089.8860759-.8860759.8860759z"/></g></g></svg>