<svg height="93" viewBox="0 0 160 93" width="160" xmlns="http://www.w3.org/2000/svg"><g fill="none" fill-rule="evenodd"><path d="m11.5374834 0h136.9250336c4.011834 0 5.466622.41771525 6.933289 1.20209717 1.466666.78438191 2.617715 1.9354305 3.402097 3.40209716.784382 1.46666667 1.202097 2.92145474 1.202097 6.93328907v69.9250332c0 4.0118343-.417715 5.4666224-1.202097 6.9332891-.784382 1.4666666-1.935431 2.6177152-3.402097 3.4020971-1.466667.7843819-2.921455 1.2020972-6.933289 1.2020972h-136.9250336c-4.01183433 0-5.4666224-.4177153-6.93328907-1.2020972-1.46666666-.7843819-2.61771525-1.9354305-3.40209716-3.4020971-.78438192-1.4666667-1.20209717-2.9214548-1.20209717-6.9332891v-69.9250332c0-4.01183433.41771525-5.4666224 1.20209717-6.93328907.78438191-1.46666666 1.9354305-2.61771525 3.40209716-3.40209716 1.46666667-.78438192 2.92145474-1.20209717 6.93328907-1.20209717z" fill="#fff"/><path d="m3.65853659.26500976c-2.01417147 0-3.65853659 1.64436585-3.65853659 3.65853658v51.21951216c0 2.0141708 1.64436512 3.6585366 3.65853659 3.6585366h51.21951221c2.0141714 0 3.6585366-1.6443658 3.6585366-3.6585366v-51.21951216c0-2.01417073-1.6443652-3.65853658-3.6585366-3.65853658zm0 1.46341463h51.21951221c1.2287532 0 2.1951219.96636585 2.1951219 2.19512195v51.21951216c0 1.2287561-.9663687 2.195122-2.1951219 2.195122h-51.21951221c-1.22875318 0-2.19512196-.9663659-2.19512196-2.195122v-51.21951216c0-1.2287561.96636878-2.19512195 2.19512196-2.19512195zm36.44817071 5.85365854c-.4041108.0378854-.7009951.39619409-.6631097.80030487s.3961941.70099513.8003048.66310976h8.4603659l-19.4359756 19.43597564-6.7911586-6.7911586c-.1579511-.1697157-.3869826-.2545422-.617378-.2286585-.2848203.0277191-.5273498.218917-.6207888.4893982-.0934389.2704813-.0206406.5706106.1863376.7682237l6.7911585 6.8140244-19.4359756 19.4359756v-8.4603658c.0084044-.2149339-.07817912-.4226803-.23673958-.5680274-.15856047-.1453471-.37303779-.2135731-.58643115-.1865458-.37691396.0472283-.65502279.3749994-.6402439.7545732v10.2439024c.0000404.4040941.32761326.7317808.73170732.7317808h10.24390241c.26388.0036585.5093279-.1349822.6423569-.3629072.133029-.2279251.133029-.5098221 0-.7377471s-.3784769-.3665657-.6423569-.3628338h-8.48323168l19.45884148-19.4588414 6.7911585 6.7911585c.2846614.287579.7481243.291307 1.037375.0083444s.2957084-.7463955.0144543-1.0373078l-6.7911585-6.7911586 19.4359756-19.4588414v8.4832317c-.003732.2638799.1349087.5093278.3628338.6423569.227925.133029.509822.133029.737747 0 .227925-.1330291.3665657-.378477.3629073-.6423569v-10.24390246c0-.40409405-.3276868-.73166691-.7317808-.73170731h-10.2439025c-.0456308-.00429638-.0915643-.00429638-.1371951 0z" fill="#000" fill-rule="nonzero" transform="translate(51 17.467)"/></g></svg>