<svg height="336" viewBox="0 0 430 336" width="430" xmlns="http://www.w3.org/2000/svg" xmlns:xlink="http://www.w3.org/1999/xlink"><defs><linearGradient id="a" x1="86.427%" x2="4.889%" y1="9.75%" y2="76.749%"><stop offset="0" stop-color="#d229ff"/><stop offset="1" stop-color="#672bcc"/></linearGradient><rect id="b" height="256" rx="35" width="350"/><filter id="c" height="154.7%" width="140%" x="-20%" y="-19.5%"><feMorphology in="SourceAlpha" radius="5" result="shadowSpreadOuter1"/><feOffset dy="20" in="shadowSpreadOuter1" result="shadowOffsetOuter1"/><feGaussianBlur in="shadowOffsetOuter1" result="shadowBlurOuter1" stdDeviation="25"/><feColorMatrix in="shadowBlurOuter1" values="0 0 0 0 0.691229895 0 0 0 0 0.763682769 0 0 0 0 0.836135643 0 0 0 1 0"/></filter><linearGradient id="d"><stop offset="0" stop-color="#f7b500"/><stop offset="1" stop-color="#e02020"/></linearGradient><linearGradient id="e" x1="68.195%" x2="94.204%" xlink:href="#d" y1="84.392%" y2="39.391%"/><linearGradient id="f" x1="84.889%" x2="99.819%" xlink:href="#d" y1="134.781%" y2="-19.98%"/><mask id="g" fill="#fff"><use fill="#fff" fill-rule="evenodd" xlink:href="#b"/></mask></defs><g fill="none" fill-rule="evenodd" transform="translate(40 20)"><use fill="#000" filter="url(#c)" xlink:href="#b"/><use fill="url(#a)" xlink:href="#b"/><g mask="url(#g)"><g transform="translate(-1 -104)"><rect height="504" rx="5" width="350" x="1" y="1"/><g fill-rule="nonzero" opacity=".139"><g fill="url(#e)"><path d="m350.865 0v504.53h-235.88c-19.604-9.39-34.285-16.172-44.045-20.342-28.387-12.132-51.322-22.113-70.94-31.405v-452.783z" transform="matrix(1 0 0 -1 .135 505)"/><path d="m0 0h349.907v503.516h-100.669c-20.536-19.369-42.56-37.62-66.07-54.753-60.916-44.396-120.885-57.263-183.168-72.279z" transform="matrix(1 0 0 -1 1.093 505)"/><path d="m349.907 0v504.633h-49.918c-36.9-40.631-67.169-87.12-90.805-139.463-44.249-97.995-107.85-176.93-209.184-230.798v-134.372z" transform="matrix(1 0 0 -1 1.093 505)"/></g><path d="m0 0h349.907v503.912h-50.67c-36.67-40.485-66.774-86.764-90.31-138.834-52.342-115.804-146.597-105.751-208.841-159.739z" fill="url(#f)" transform="matrix(1 0 0 -1 1.093 505)"/><path d="m264.474 0v281.277c-36.167-47.495-86.442-86.496-147.846-120.309-67.282-37.05-108.57-100.864-116.628-160.914z" fill="url(#e)" transform="matrix(1 0 0 -1 86.526 505)"/></g></g></g></g></svg>