<svg height="145" viewBox="0 0 173 145" width="173" xmlns="http://www.w3.org/2000/svg"><path d="m1.924 51.321c7.484-17.151 14.176-22.326 24.146-35.845 4.38-5.938 4.235-13.78 11.472-14.953 4.695-.761 11.21 2.345 15.188 4.336 13.783 6.902 28.73 12.645 40.996 22.223 16.68 13.026 38.656 16.952 54.393 31.595 6.81 6.337 30.07 24.698 23.006 39.24l-.227.467c-8.62 17.745-15.583 32.079-31.635 42.409-14.935 9.61-28.57-2.323-40.701-8.398-13.985-7.003-26.898-15.647-40.882-22.65-7.802-3.907-14.607-9.36-22.309-13.35-7.311-3.788-17.283-6.363-23.063-12.76-5.767-6.38-15.606-20.342-10.384-32.314z" fill="#b6f3f9"/></svg>