<svg height="43" viewBox="0 0 118 43" width="118" xmlns="http://www.w3.org/2000/svg"><g fill="none" fill-rule="evenodd" transform="translate(0 -1)"><g fill-rule="nonzero" transform="translate(0 .507764)"><path d="m16 27.5v15c0 .2761424-.2238576.5-.5.5h-15c-.27614237 0-.5-.2238576-.5-.5v-15c0-.2761424.22385763-.5.5-.5h15c.2761424 0 .5.2238576.5.5z" fill="#00acc1"/><path d="m32 25c4.9705632 0 9 4.0294368 9 9s-4.0294368 9-9 9-9-4.0294368-9-9 4.0294368-9 9-9z" fill="#5c2fa8"/><path d="m42.1294815 18h-19.258963c-.2761424 0-.5-.2238576-.5-.5 0-.0885273.0235042-.1754675.0681105-.2519355l9.6294815-16.50768258c.1391402-.23852596.4452991-.31909408.683825-.17995394.0745018.04345939.1364946.10545212.179954.17995394l9.6294815 16.50768258c.1391401.2385259.058572.5446848-.179954.683825-.076468.0446063-.1634082.0681105-.2519355.0681105z" fill="#f74575"/><path d="m8.85355339 6.59268716 5.23913381-5.23913377c.1952621-.19526215.5118446-.19526215.7071067 0l1.8466527 1.84665267c.1952622.19526215.1952622.51184464 0 .70710678l-5.2391338 5.23913377c-.1952621.19526215-.1952621.51184463 0 .70710678l5.2391338 5.23913381c.1952622.1952621.1952622.5118446 0 .7071067l-1.8466527 1.8466527c-.1952621.1952622-.5118446.1952622-.7071067 0l-5.23913381-5.2391338c-.19526215-.1952621-.51184463-.1952621-.70710678 0l-5.23913377 5.2391338c-.19526214.1952622-.51184463.1952622-.70710678 0l-1.84665267-1.8466527c-.19526214-.1952621-.19526214-.5118446 0-.7071067l5.23913377-5.23913381c.19526214-.19526215.19526214-.51184463 0-.70710678l-5.23913377-5.23913377c-.19526214-.19526214-.19526214-.51184463 0-.70710678l1.84665267-1.84665267c.19526215-.19526215.51184464-.19526215.70710678 0l5.23913377 5.23913377c.19526215.19526214.51184463.19526214.70710678 0z" fill="#ffc100"/></g><text fill="#000" font-family="RobotoMono-Medium, Roboto Mono" font-size="16" font-weight="400"><tspan x="52" y="18">Startup</tspan><tspan x="52" y="39">Landing</tspan></text></g></svg>