<svg height="1131" viewBox="0 0 1922 1131" width="1922" xmlns="http://www.w3.org/2000/svg" xmlns:xlink="http://www.w3.org/1999/xlink"><defs><path id="a" d="m0 0h1922v1131h-1922z"/><linearGradient id="b" x1="-3.401%" x2="77.127%" y1="31.88%" y2="78.428%"><stop offset="0" stop-color="#ffe4ea"/><stop offset="1" stop-color="#def4f9"/></linearGradient><linearGradient id="c" x1="38.03%" x2="50%" y1="35.03%" y2="77.871%"><stop offset="0" stop-color="#f6dc00"/><stop offset="1" stop-color="#ffc100"/></linearGradient><mask id="d" fill="#fff"><use fill="#fff" fill-rule="evenodd" xlink:href="#a"/></mask></defs><g fill="none" fill-rule="evenodd"><use fill="#eff7ff" xlink:href="#a"/><g mask="url(#d)"><g transform="translate(436 -239)"><path d="m1159.74785 1331c186.90055 0 277.10753-79.66092 430.83054-162.60528 139.76195-75.4114 237.91902-760.188089-82.0892-945.315457-461.43385-266.9432574-1438.48919-35.209358-1438.48919 17.638539 0 103.902025 48.737609 322.202638 103.575629 384.740634 106.944124 121.960481 274.245097 50.955893 408.793176 181.897435 196.293883 191.03226 281.907583 523.644129 577.379045 523.644129z" fill="url(#b)" transform="matrix(.99254615 .12186934 -.12186934 .99254615 93.693359 -103.872884)"/><path d="m1158 1225.36708c169.62149 0 251.48877-72.26078 391-147.5 126.84088-68.40602 215.92326-689.570113-74.5-857.5-418.77402-242.1454577-1305.5-31.938571-1305.5 16 0 94.250005 44.231788 292.271495 94 349 97.057075 110.630913 248.890972 46.222325 371 165 178.146395 173.286243 255.845057 475 524 475z" fill="url(#c)"/></g></g></g></svg>