<svg height="813" viewBox="0 0 860 813" width="860" xmlns="http://www.w3.org/2000/svg"><g fill="none" fill-rule="evenodd"><path d="m0 0h1040v813h-940c-55.228475 0-100-44.771525-100-100z" fill="#ffc100"/><path d="m52.9414062 270.269531c7.7864584 0 14.663086-1.84082 20.6298829-5.522461 5.9667968-3.68164 10.6111653-8.950195 13.9331054-15.805664 3.3219401-6.855468 4.9829102-14.895833 4.9829102-24.121094v-3.999023c0-9.22526-1.6715495-17.276204-5.0146485-24.152832-3.3430989-6.876628-8.0086263-12.155762-13.996582-15.837402-5.9879557-3.681641-12.8751627-5.522461-20.6616211-5.522461-7.7864583 0-14.6630859 1.84082-20.6298828 5.522461-5.9667969 3.68164-10.6217448 8.960774-13.9648437 15.837402-3.343099 6.876628-5.0146485 14.927572-5.0146485 24.152832v3.999023c0 9.225261 1.6715495 17.265626 5.0146485 24.121094 3.3430989 6.855469 8.0192057 12.124024 14.0283203 15.805664 6.0091146 3.681641 12.906901 5.522461 20.6933593 5.522461zm0-16.313476c-6.2630208 0-11.0872395-2.517904-14.4726562-7.553711-3.3854167-5.035808-5.078125-12.229818-5.078125-21.582032v-4.125976c0-9.436849 1.6715495-16.630859 5.0146484-21.582031 3.343099-4.951172 8.1461589-7.426758 14.4091797-7.426758 6.2207031 0 11.023763 2.486165 14.4091797 7.458496s5.078125 12.155762 5.078125 21.550293v4.125976c0 9.352214-1.6715495 16.546224-5.0146484 21.582032-3.343099 5.035807-8.125 7.553711-14.3457032 7.553711zm79.7265628 15.043945 12.568359-42.148438 12.631836 42.148438h16.05957l17.138672-68.681641h-18.408203l-8.505859 42.592774-12.060547-42.592774h-13.710938l-12.060547 42.783203-8.442382-42.783203h-18.4082034l17.1386714 68.681641zm85.947265 0v-48.369141c1.142578-1.946614 2.634278-3.448893 4.475098-4.506836 1.84082-1.057942 4.009603-1.586914 6.506348-1.586914 3.639323 0 6.326497.793457 8.061523 2.380371 1.735026 1.586915 2.602539 4.411622 2.602539 8.474122v43.608398h19.169922v-43.544922c0-9.352213-1.883138-16.091308-5.649414-20.217285s-9.098307-6.188965-15.996094-6.188965c-4.0625 0-7.765299.782878-11.108398 2.348633s-6.220703 3.850911-8.632813 6.855469l-.634765-7.934571h-17.963868v68.681641zm127.714844 0v-76.298828h28.183594v-16.123047h-75.791016v16.123047h27.739258v76.298828zm56.240234 0v-48.876953c2.242839-3.723958 5.92448-5.585938 11.044922-5.585938 3.597006 0 6.273601.846355 8.029786 2.539063 1.756184 1.692708 2.634277 4.61263 2.634277 8.759766v43.164062h19.169922v-43.037109c0-9.394532-1.999512-16.228842-5.998535-20.50293-3.999024-4.274089-9.595541-6.411133-16.789551-6.411133-3.639323 0-6.993001.74056-10.061035 2.22168s-5.744629 3.618164-8.029786 6.411133v-36.181641h-19.169921v97.5zm86.264649 1.269531c6.220703 0 11.647949-1.184896 16.281738-3.554687 4.633789-2.369792 8.156739-5.289714 10.568848-8.759766l-9.204102-10.600586c-1.988932 2.496745-4.390462 4.369304-7.20459 5.617676-2.814127 1.248372-5.871582 1.872559-9.172363 1.872559-4.443359 0-8.082682-1.258952-10.917969-3.776856-2.835286-2.517904-4.61263-5.9139-5.332031-10.187988h43.417969v-8.125c0-6.855469-1.184896-12.811686-3.554688-17.868653-2.369791-5.056966-5.839843-8.960774-10.410156-11.711425-4.570312-2.750651-10.092773-4.125977-16.567383-4.125977-6.64388 0-12.399088 1.512858-17.265625 4.538574-4.866536 3.025716-8.590494 7.225749-11.171875 12.600098-2.58138 5.374349-3.87207 11.489258-3.87207 18.344727v2.412109c0 6.136068 1.385905 11.743164 4.157715 16.821289s6.749674 9.098307 11.933594 12.060547c5.183919 2.962239 11.288248 4.443359 18.312988 4.443359zm9.648437-42.211914h-24.438476c.634766-4.231771 1.978353-7.553711 4.030762-9.96582 2.052408-2.412109 4.898274-3.618164 8.537597-3.618164 3.893229 0 6.823731 1.079101 8.791504 3.237305 1.967774 2.158203 2.993978 5.099283 3.078613 8.823242zm82.202149 40.942383v-33.388672h14.40918l17.011718 33.388672h21.328125v-.952148l-19.804687-37.578125c5.289713-2.41211 9.352213-5.702312 12.1875-9.870606 2.835286-4.168294 4.252929-9.532064 4.252929-16.091309 0-6.009114-1.375325-11.097819-4.125976-15.266113s-6.696777-7.320963-11.838379-9.458008c-5.141602-2.137044-11.288249-3.205566-18.439941-3.205566h-34.91211v92.421875zm14.980469-49.511719h-14.980469v-26.787109h14.980469c4.781901 0 8.389485 1.184896 10.822754 3.554687 2.433268 2.369792 3.649902 5.670573 3.649902 9.902344 0 4.147136-1.227214 7.405599-3.681641 9.775391-2.454427 2.369791-6.051432 3.554687-10.791015 3.554687zm77.377929 50.78125c6.813151 0 12.674154-1.502278 17.583008-4.506836 4.908854-3.004557 8.643392-7.141113 11.203613-12.409668 2.560222-5.268554 3.840332-11.267089 3.840332-17.995605v-1.333008c0-6.728516-1.28011-12.73763-3.840332-18.027344-2.560221-5.289713-6.305338-9.436849-11.235351-12.441406s-10.822754-4.506836-17.678223-4.506836c-6.813151 0-12.674153 1.502279-17.583008 4.506836-4.908854 3.004557-8.643392 7.151693-11.203613 12.441406-2.560221 5.289714-3.840332 11.298828-3.840332 18.027344v1.333008c0 6.728516 1.280111 12.727051 3.840332 17.995605 2.560221 5.268555 6.305339 9.405111 11.235352 12.409668 4.930013 3.004558 10.822754 4.506836 17.678222 4.506836zm0-15.424804c-4.739583 0-8.188476-1.766765-10.346679-5.300293-2.158204-3.533529-3.237305-8.262533-3.237305-14.187012v-1.333008c0-5.797526 1.079101-10.505371 3.237305-14.123535 2.158203-3.618164 5.564778-5.427246 10.219726-5.427246 4.739584 0 8.188477 1.798502 10.34668 5.395508 2.158203 3.597005 3.237305 8.315429 3.237305 14.155273v1.333008c0 5.882161-1.079102 10.600586-3.237305 14.155273-2.158203 3.554688-5.564779 5.332032-10.219727 5.332032zm63.920899 15.424804c7.109375 0 12.843424-2.475586 17.202148-7.426758.38086 2.454428.994466 4.506836 1.84082 6.157227h19.233399v-1.079102c-.93099-1.861979-1.629232-3.999023-2.094727-6.411132-.465494-2.41211-.698242-5.564779-.698242-9.458008v-28.754883c0-5.247396-1.184896-9.690755-3.554687-13.330078-2.369792-3.639323-5.649414-6.368815-9.838867-8.188477-4.189454-1.819661-8.992514-2.729492-14.40918-2.729492-5.839844 0-10.992025.973307-15.456543 2.919922s-7.913412 4.591471-10.34668 7.93457-3.649902 7.067058-3.649902 11.171875h19.169922c0-2.539062.814616-4.496256 2.443847-5.871582 1.629232-1.375325 3.903809-2.062988 6.823731-2.062988 3.216146 0 5.628255.878092 7.236328 2.634277s2.412109 4.221192 2.412109 7.39502v3.87207h-7.807617c-10.452474 0-18.365885 1.957194-23.740234 5.871582s-8.061524 9.489746-8.061524 16.726074c0 3.935547 1.026205 7.469076 3.078614 10.600586 2.052408 3.131511 4.855957 5.585938 8.410644 7.363282 3.554688 1.777343 7.490235 2.666015 11.806641 2.666015zm4.316406-14.536133c-2.58138 0-4.644368-.677083-6.188965-2.03125-1.544596-1.354166-2.316894-3.110351-2.316894-5.268554 0-3.089193 1.089681-5.596517 3.269043-7.521973s5.490722-2.888183 9.934082-2.888183h7.299804v11.489257c-.973307 1.735026-2.517903 3.205567-4.633789 4.411621-2.115885 1.206055-4.570312 1.809082-7.363281 1.809082zm68.681641 14.536133c7.109375 0 12.906901-2.877604 17.392578-8.632812l.952148 7.363281h17.265625v-97.5h-19.169922v34.975586c-4.358724-4.951172-9.796549-7.426758-16.313476-7.426758-5.628255 0-10.463054 1.459961-14.504395 4.379883s-7.109375 7.02474-9.204101 12.314453c-2.094727 5.289714-3.14209 11.425781-3.14209 18.408203v1.333008c0 6.728516 1.047363 12.716471 3.14209 17.963867 2.094726 5.247396 5.16276 9.362793 9.204101 12.346192 4.041341 2.983398 8.833822 4.475097 14.377442 4.475097zm4.887695-15.488281c-4.358724 0-7.521973-1.745605-9.489746-5.236816-1.967774-3.491211-2.95166-8.177898-2.95166-14.060059v-1.333008c0-5.966797 1.005045-10.727539 3.015136-14.282226 2.010092-3.554688 5.194499-5.332032 9.553223-5.332032 5.416667 0 9.22526 2.285157 11.425781 6.855469v26.533203c-2.327474 4.570313-6.178385 6.855469-11.552734 6.855469z" fill="#000" fill-rule="nonzero" opacity=".1"/></g></svg>